<?xml version="1.0" encoding="utf-8"?>
<!-- Generator: Adobe Illustrator 26.0.2, SVG Export Plug-In . SVG Version: 6.00 Build 0)  -->
<svg version="1.1" xmlns="http://www.w3.org/2000/svg" xmlns:xlink="http://www.w3.org/1999/xlink" x="0px" y="0px"
	 viewBox="0 0 500 220" style="enable-background:new 0 0 500 220;" xml:space="preserve">
<style type="text/css">
	.st0{clip-path:url(#SVGID_00000140710096651417938310000001320467995793212292_);}
	.st1{fill:#FFFFFF;}
</style>
<g id="Layer_1">
	<g>
		<defs>
			<rect id="SVGID_1_" width="500" height="220"/>
		</defs>
		<clipPath id="SVGID_00000078760046906967440210000016105405606598609567_">
			<use xlink:href="#SVGID_1_"  style="overflow:visible;"/>
		</clipPath>
		<g style="clip-path:url(#SVGID_00000078760046906967440210000016105405606598609567_);">
			<path d="M96.7,139.7c-0.3,1.1-0.6,2-0.8,2.7s-0.4,1.3-0.6,1.9s-0.4,1.3-0.6,2s-0.6,1.7-1,3c-0.5,2-1,4-1.5,5.8
				c-0.5,2-0.7,4-0.7,6c0.3-0.1,0.5-0.3,0.8-0.5c0.2-0.2,0.4-0.5,0.5-0.8c0.2-0.6,0.5-1.1,0.9-1.5c0.2-0.3,0.4-0.4,0.6-0.2
				s0.2,0,0.2-0.2c0.3-0.3,0.5-0.6,0.6-1c0.1-0.2,0.2-0.3,0.4-0.4c0.2-0.1,0.4-0.1,0.5-0.1c0-0.2,0-0.5,0.1-0.8
				c0.1-0.2,0.1-0.4,0.1-0.5c0.2-0.2,0.4-0.4,0.7-0.4c0.3-0.1,0.5-0.2,0.5-0.4c0.1-0.2,0.2-0.5,0.3-0.8c0.1-0.3,0.2-0.5,0.4-0.7
				c0.3-0.2,0.6-0.4,0.9-0.6c0.3-0.1,0.5-0.3,0.7-0.5c0.6-0.5,1.1-1,1.5-1.4c0.5-0.5,1.1-1,1.7-1.3c0.2-0.4,0.5-0.9,0.9-1.2
				c0.3-0.4,0.6-0.8,0.6-1.3c0.3,0,0.6-0.1,0.8-0.2c0.3-0.2,0.5-0.4,0.8-0.6c0.3-0.3,0.6-0.5,0.9-0.8c0.2-0.2,0.3-0.2,0.3-0.1
				s0.1,0.1,0.2,0.1c0.2-0.1,0.3-0.3,0.4-0.5l0.3-0.4c0.1,0,0.1-0.1,0.1-0.1c0-0.1,0-0.1,0-0.2c0-0.5,0.6-1.1,1.8-2s2.5-1.6,3.7-2.4
				c0.2,0,0.3,0,0.5-0.1c0.2-0.1,0.3-0.2,0.4-0.3c0.1-0.1,0.3-0.2,0.4-0.3c0.2-0.1,0.4-0.1,0.6-0.1c1.3-0.4,2.7-0.3,4,0.2
				c1.2,0.5,2.4,1,3.7,1.4c0.1,0,0.1,0,0.2,0s0.1,0,0.1,0.1c0.1,0.1,0.2,0,0.4-0.1c0.7,0.7,1.3,1.6,1.5,2.6c0.3,1.1,0.5,2.3,0.4,3.4
				c0,0.5,0,1.1-0.1,1.6s-0.1,1.1-0.2,1.7c-0.3,2-0.8,3.9-1.5,5.8c-0.7,2.2-1,4.4-1,6.7c-0.1,0.6,0,1.2,0.2,1.7
				c0.1,0.5,0.3,0.9,0.6,1.3c0.6,0.2,1.3,0.4,1.9,0.4c0.6,0,1.2,0,1.9-0.1c0.1-0.1,0.1-0.1,0.2-0.1c0.1,0,0.2,0,0.3,0s0.2,0,0.3,0
				c0.1,0,0.2-0.1,0.2-0.1c0.6-0.1,1.3-0.4,1.9-0.7l2-1l2-1.1l1.7-0.9c1.4-1.1,3-2.2,4.6-3.5s3.1-2.5,4.6-3.8
				c1.5-1.3,2.9-2.6,4.2-3.8l3.6-3.3c0.3-0.4,0.8-0.7,1.2-1c0.5-0.2,1-0.3,1.5-0.3c0.1,0.3,0.1,0.7-0.1,1c-0.1,0.1-0.2,0.2-0.4,0.3
				l-0.4,0.2c-0.2,0.1-0.2,0.4-0.2,0.9c-0.1,0-0.2,0.1-0.3,0.2c-0.1,0-0.2,0.1-0.2,0.2c0,0.1-0.1,0.1-0.2,0.1c0,0.6,0.1,0.9,0.4,0.9
				c-0.5,0.6-1.1,1.1-1.6,1.6c-0.6,0.5-1,0.9-1.4,1.3c-0.1,0-0.1,0,0,0.1c0.1,0.1,0.2,0.1,0.3,0.1c-0.1,0.4-0.3,0.7-0.6,0.9
				c-0.4,0.2-0.7,0.5-1.1,0.7c-0.4,0.3-0.9,0.6-1.3,0.9c-0.4,0.3-0.8,0.6-1.2,1c0.1,0.2,0.1,0.3,0.2,0.5c0.1,0.1,0.1,0.2-0.1,0.3
				c-0.1,0.6-0.4,0.9-0.7,1s-0.6,0.4-0.9,1c-0.1-0.1-0.3,0-0.4,0.4s-0.3,0.4-0.5,0.2l-2.2,1.9c-0.3,0.3-0.6,0.6-0.9,0.9
				c0.1,0.1,0,0.2-0.2,0.4s-0.4,0.4-0.7,0.6c-0.3,0.2-0.6,0.4-0.8,0.6c-0.2,0.1-0.4,0.2-0.6,0.4c-1.5,0.6-2.8,1.5-4,2.6
				c-1,0.9-2.2,1.7-3.5,2.1c-1.3,0.5-2.6,0.8-3.9,0.9c-1.2,0.1-2.3,0.1-3.5-0.1c-1.1-0.2-2.2-0.5-3.3-0.8c-0.6-0.1-0.9-0.3-0.9-0.6
				c-0.1-0.4-0.2-0.9-0.5-1.2c-0.4-0.5-0.8-1-1.2-1.5c-0.4-0.5-0.8-1-1.2-1.4c-0.4-0.5-0.7-1-1-1.6c-0.3-0.6-0.4-1.3-0.4-1.9
				c-0.1-1.1-0.2-2.3-0.2-3.4c0-1.1,0.1-2.1,0.3-3.2c0.2-1,0.4-2.1,0.6-3.1l0.7-3.4c0.1-0.5,0.2-0.9,0.3-1.4
				c0.2-0.5,0.3-1.1,0.4-1.6c0.1-0.3,0.2-0.6,0-0.7c-0.1-0.1-0.1-0.2-0.1-0.3c0-0.1,0-0.2,0.1-0.3c-0.3-0.1-0.7-0.2-1.1-0.1
				c-0.4,0-0.7,0.2-1,0.4c-0.5,0.5-1.1,1-1.8,1.5c-0.6,0.5-1.2,0.9-1.8,1.3c-0.5,0.5-1,1-1.5,1.5c-0.4,0.5-0.9,0.9-1.4,1.3
				c-0.3,0.3-0.6,0.5-1,0.6c-0.3,0.1-0.7,0.3-0.8,0.6c-0.2,0.4-0.5,0.8-0.8,1.1c-0.3,0.2-0.6,0.5-0.8,0.7c-0.8,0.5-1.6,1.1-2.3,1.8
				c-1.1,1-2.2,2-3.3,3.2s-2.2,2.2-3.2,3.3c-0.7,0.7-1.3,1.4-1.9,2.2c-0.6,0.9-1.2,1.8-1.9,2.6c-0.7,0.8-1.4,1.6-2.1,2.4
				c-0.5,0.4-1.1,0.7-1.8,0.9c-0.4,0.1-0.8,0.2-1.2,0.1c-0.4,0-0.8-0.2-1.2-0.4c-0.1,0-0.4-0.2-0.7-0.7c-0.3-0.4-0.6-0.9-1-1.2
				c-0.3-0.5-0.6-1-0.9-1.5c-0.3-0.6-0.5-1.2-0.6-1.8c0-0.6-0.2-1.2-0.4-1.7c-0.3-0.5-0.3-1.2-0.2-1.7c0-0.1,0.1-0.2,0.2-0.2
				c0.2,0,0.2-0.1,0.2-0.4c-0.3,0-0.4,0-0.4-0.1c-0.1-0.3-0.2-0.7-0.1-1c0.1-0.3,0-0.6-0.1-0.9c0.1-0.3,0.2-0.3,0.2-0.1
				s0.1,0.2,0.4,0.1c0-1.6,0.2-3.3,0.5-4.9c0.3-1.8,0.7-3.6,1.1-5.3c0.4-1.7,0.9-3.3,1.3-4.8l1.1-3.5c0.4,0.1,0.9,0,1.3-0.2
				c0.1-0.1,0.2-0.2,0.2-0.3c0.1-0.1,0.1-0.2,0.1-0.3v-0.9c0-0.4,0-0.8,0.2-1.1H91c0.1-0.3,0.1-0.7,0-1c-0.1-0.2-0.1-0.3,0-0.5
				c0-0.2,0.1-0.3,0.2-0.5c0.1,0.1,0.1,0.1,0.1,0.2c0,0.1,0.1,0.1,0.1,0.2c0.1-0.4,0.3-0.8,0.5-1.1c0.2-0.4,0.4-0.7,0.5-1.1
				c0.1-0.3,0.2-0.7,0.2-1c0-0.3,0.1-0.6,0.2-0.9c0.3-0.8,0.7-1.6,1.2-2.3c0.6-0.7,1-1.5,0.9-2.4c-0.1-0.3,0-0.7,0.1-1
				c0.1-0.3,0.3-0.6,0.6-0.8c0.5-0.5,0.9-1,1.2-1.6c0.1-0.4,0.1-0.7,0-0.8c-0.1-0.2,0-0.4,0.5-0.8c0.3-0.2,0.5-0.5,0.6-0.8
				c0.1-0.2,0.1-0.6,0.2-1c0.2-0.8,0.5-1.6,0.9-2.2c0.5-0.8,0.9-1.5,1.3-2.2s1-1.7,1.7-2.8s1.8-2.8,3.3-5.1c0.1-0.3,0.3-0.7,0.5-1
				c0.1-0.1,0.2-0.1,0.2-0.1c0.1,0.1,0.1,0.1,0.2,0.2c0.1,0.1,0.3,0,0.6-0.1c0.6-0.3,1-0.8,1.3-1.3c0.3-0.6,0.7-1.2,1-1.7
				c-0.4,0.2-0.5,0-0.3-0.7c-0.2,0.3-0.3,0.6-0.5,0.9c-0.2,0.4-0.4,0.8-0.7,1.2c-0.3,0.4-0.5,0.7-0.7,1s-0.4,0.4-0.5,0.3
				c0.2-0.6,0.6-1.2,1-1.8c0.6-0.8,1.2-1.6,1.8-2.4s1.2-1.6,1.6-2.2s0.7-1,0.6-1.1c-0.5,0.1-0.7,0.3-0.8,0.5
				c-0.3-0.1-0.4-0.2-0.3-0.3c0.1-0.1,0.2-0.2,0.3-0.3c-0.2,0-0.4,0-0.7,0.1c-0.2,0.1-0.4,0.2-0.5,0.4c-0.3-0.6-0.8-0.8-1.2-0.7
				c-0.5,0.1-0.9,0.2-1.4,0.2c0,0.1,0.1,0.2,0.3,0.2c0.2,0,0.4,0,0.6,0c0,0.1-0.2,0.2-0.7,0.2c-0.4,0-0.8,0-1.2-0.1
				c-0.4,0-0.5,0.1-0.3,0.3c-0.2,0.1-0.4,0.2-0.6,0.2c-0.3,0.1-0.7,0.1-1.1,0.2c-0.4,0-0.8,0-1.1,0c-0.3,0-0.5-0.1-0.8-0.2
				c-0.1,0,0,0,0.3-0.1s0.6-0.1,0.9-0.2h-3.9L94.5,98c-1.5,0-2.9,0.1-4.1,0.1H71.6c-0.3,0.4-0.6,0.9-0.8,1.4c-0.2,0.5-0.4,1.2-0.7,2
				c-0.5,1.5-1.2,3.5-2,5.8s-1.7,4.8-2.6,7.3c-0.9,2.5-1.8,5-2.6,7.3s-1.4,4.2-1.8,5.7c-0.3,1-0.7,2-1.1,3s-0.8,2-1.1,3
				c-0.1,0.3-0.2,0.6-0.2,0.9c0,0.3,0,0.7-0.2,1c-0.3,0.4-0.6,0.9-0.7,1.5c-0.3,0.9-0.5,1.8-0.7,2.7s-0.4,1.9-0.6,2.8l-2.7,9.7
				c-0.3,1-0.5,2-0.7,3c-0.2,1-0.4,2-0.5,3c-0.1,1-0.1,2,0,3c0.1,0.9,0,1.8-0.4,2.7c-0.3,0.7-0.5,1.2-0.7,1.7
				c-0.3,0.6-0.4,1.3-0.3,2c0,0.6,0,1.2,0.2,1.8c0.1,0.6,0.2,1.1,0.2,1.7c-0.3-0.3-0.4-0.2-0.3,0.4s0,0.9,0,1
				c-0.3-0.2-0.6-0.5-0.7-0.9c-0.1-0.4-0.3-0.9-0.4-1.5c-0.5,0-0.6,0.2-0.4,0.6c0.1,0.1,0.1,0.3,0.2,0.5c0,0.2,0,0.4-0.1,0.5
				c-0.1-0.1-0.2-0.2-0.3-0.3s-0.1-0.3-0.2-0.4c-0.1-0.3-0.2-0.7-0.3-1c-0.1,0.4-0.1,0.9,0,1.3c0.2,0.6,0.3,1.1,0.5,1.7
				c-0.1,0.2-0.2,0.1-0.5-0.1c-0.1-0.1-0.2-0.2-0.3-0.4c-0.1-0.1-0.1-0.3-0.1-0.5c-0.3,0.2-0.5,0.4-0.5,0.6c0,0.3,0.1,0.5,0.2,0.7
				c0.1,0.3,0.3,0.6,0.3,0.9c0.1,0.3,0.1,0.7,0,1c-0.4-0.1-0.8-0.3-1.1-0.7c-0.3-0.4-0.6-0.9-0.9-1.3c-0.3-0.5-0.5-1-0.6-1.5
				c-0.1-0.4-0.3-0.9-0.3-1.4c-0.3-1.1-0.4-2.2-0.5-3.4c-0.1-1.1-0.1-2.2,0-3.4c0-0.5,0.1-0.9,0.2-1.3c0.2-0.5,0.2-1,0-1.4
				c-0.1-0.3-0.2-0.6-0.2-0.8c0-0.2,0-0.3,0.1-0.3c0.1,0,0.1-0.1,0.2-0.1c0.1,0,0.1-0.1,0.2-0.3c0.1-0.2,0.1-0.4,0-0.6
				c0-0.2-0.1-0.4-0.2-0.6c-0.1-0.1-0.2-0.3-0.2-0.5c0-0.2,0.1-0.4,0.2-0.5c0.4-0.3,0.4-0.7,0-1c-0.2-0.1-0.3-0.3-0.3-0.6
				c0-0.2,0-0.4,0.1-0.6c0.2,0.2,0.3,0.1,0.4-0.1s0.2-0.7,0.2-1.1s0.2-0.9,0.3-1.3c0-0.2,0.1-0.3,0.2-0.5s0.2-0.2,0.4-0.3
				c-0.2-0.1-0.3-0.2-0.4-0.4c-0.1-0.2-0.1-0.4-0.1-0.6c0.1-0.2,0.2-0.4,0.3-0.5c0.1-0.1,0.3-0.3,0.5-0.3c-0.2-0.1-0.3-0.3-0.4-0.5
				c-0.1-0.2-0.1-0.4-0.1-0.6c0.1-0.4,0.2-0.8,0.5-1.1c0.3-0.4,0.5-0.8,0.7-1.2c0.2-0.5,0.2-1.1,0-1.7c0.1,0.1,0.2,0.1,0.4-0.1
				c0.2-0.2,0.4-0.5,0.5-0.8c0.1-0.3,0.2-0.6,0.2-0.9c0-0.1,0-0.1,0-0.2s0-0.1-0.1-0.2c0-0.1-0.1-0.1-0.1-0.1c0,0-0.1-0.1-0.2-0.1
				c-0.3-0.1-0.4-0.3-0.3-0.4c0.2-0.1,0.4-0.2,0.7-0.2c0.1-0.1,0.3-0.5,0.5-1.2c0.2-0.6,0.4-1.1,0.6-1.6c-0.6,0.3-1.1,0.7-1.5,1.3
				c0-0.9,0-1.8,0.2-2.6c0.1-0.9,0.5-1.6,1-2.3c-0.1,0.7-0.3,1.4-0.5,2c-0.2,0.6-0.4,1.3-0.5,2c0.3,0.1,0.5,0,0.5-0.3
				c0-0.2-0.1-0.5-0.2-0.7c0.4,0.3,0.6,0.4,0.6,0.4s0.2-0.2,0.6-0.4c0.1-0.6,0-1.3-0.3-1.9c0.1,0.1,0.2,0.1,0.3,0.2
				c0.1,0.1,0.3,0.1,0.4,0.1c0.1-0.5,0-0.7,0-0.8c-0.1,0-0.2-0.1-0.2-0.1c-0.1,0,0-0.2,0.1-0.5s0.4-0.9,0.9-1.9c0-0.2,0-0.3-0.1-0.2
				c-0.1,0.1-0.2,0.1-0.2,0.2c-0.1,0.1-0.1,0.2-0.2,0.2s-0.1-0.1-0.1-0.2s0-0.5,0.2-0.4c0.1,0,0.3,0,0.4,0c0.1-0.1,0.2-0.2,0.3-0.3
				c-0.1-0.1-0.2-0.2-0.3-0.4s-0.1-0.3-0.2-0.4s0-0.3,0-0.5s0.1-0.3,0.2-0.4c0.4-0.5,0.7-1.1,1-1.6c0.2-0.3,0.4-0.6,0.5-1
				c0.3-0.6,0.5-0.9,0.5-0.9c-0.2-0.1-0.3-0.2-0.5-0.3c-0.3-0.2-0.3-0.3,0-0.6c0-0.3-0.1-0.3-0.3,0c-0.2,0.2-0.3,0.3-0.3,0.6
				c-0.1-0.2-0.2-0.5-0.1-0.7c0.1-0.3,0.2-0.5,0.3-0.8l0.4-0.8c0.1-0.3,0.2-0.6,0.2-0.9c0.1,0.1,0.1,0.1,0.2,0.2
				c0,0.1,0.1,0.2,0.1,0.3s0,0.2-0.1,0.3c0,0.1-0.1,0.2-0.2,0.2c-0.3,0.3-0.4,0.6-0.4,1c0.5,0.1,0.7-0.2,0.6-0.9
				c0.3,0,0.4,0.1,0.3,0.4c-0.1,0.2-0.2,0.3-0.2,0.5c0.5,0.3,0.6,0.2,0.5-0.3c-0.1-0.3-0.2-0.5-0.3-0.8c0.1-0.2,0.2-0.4,0.3-0.5
				c0.2-0.1,0.3-0.2,0.4-0.4c0.1-0.1,0.3-0.3,0.4-0.4c0.1-0.1,0.1-0.2,0.1-0.3c0-0.1,0-0.2,0-0.4c0-0.2-0.1-0.4,0-0.6
				s0.1-0.4,0.2-0.5c0.2-0.2,0.3-0.5,0.2-0.8c0-0.4,0-0.8-0.2-1.2c-0.1-0.3,0.1-0.7,0.7-1.2s0.8-0.9,0.8-1v-1.2
				c0.1,0.3,0.2,0.4,0.2,0.3c0.1-0.1,0.1-0.2,0.1-0.2c0-0.1,0.1-0.3,0.1-0.4c0-0.1,0-0.1,0.1-0.2c0-0.1,0.1-0.1,0.2-0.1
				c0-0.1-0.1-0.2-0.2-0.1c-0.1,0-0.1,0.1-0.2,0.2c0,0.1,0,0.1,0,0.2c-0.1-0.3-0.2-0.6-0.1-0.9c0.1-0.3,0.2-0.6,0.4-0.8
				c0.4-0.5,0.8-1,0.9-1.6c-0.3,0.1-0.4,0-0.4-0.2c0-0.2,0-0.4,0.1-0.6c0.1-0.2,0.2-0.4,0.3-0.7c0.1-0.1,0.2-0.2,0.2-0.4
				c-0.1-0.2-0.3-0.1-0.5,0.3s-0.4,0.7-0.5,1c-0.1-0.1-0.2-0.2-0.2-0.3c0-0.1,0-0.2,0-0.3c0.1-0.3,0.2-0.5,0.4-0.7
				c0.2-0.2,0.4-0.4,0.7-0.6c0.1-0.1,0.2-0.1,0.4-0.2c0.1,0,0.3,0,0.4,0c0.1-1.2,0.3-2.4,0.7-3.6c0.4-1.1,1-2.2,1.9-3
				c0-0.3,0-0.7-0.2-1c-0.1-0.1,0-0.5,0.3-1c0.3-0.3,0.4-0.7,0.5-1.1c0.1-0.4,0.2-0.8,0.5-1.1c-0.2,0.1-0.4,0.2-0.6,0.2
				c-0.1,0-0.1-0.3,0-0.9c-0.9-0.4-1.9-0.7-2.9-0.9c-1.1-0.2-2.2-0.4-3.3-0.6c-1.1-0.1-2.2-0.1-3.4-0.1s-2.2,0-3.2-0.1
				s-1.8-0.1-2.4-0.2s-1.2-0.1-1.8-0.2s-1.2,0-1.8,0H41h-7.7c-2.6,0-5.1,0.2-7.6,0.4s-5.1,0.5-7.7,0.7c-2.5,0.2-5,0.8-7.4,1.8
				c0.1-0.2,0.2-0.3,0.3-0.4c0.1-0.1,0.3-0.2,0.5-0.2c0.4-0.1,0.7-0.2,1-0.4c-0.4-0.1-0.9-0.2-1.3-0.1c-0.4,0.1-0.8,0.3-1.2,0.5
				c-0.6,0.5-1.3,0.9-2.1,1.2c-0.5,0-0.7-0.1-0.4-0.2c0.1,0,0.1-0.1,0.2-0.1c0-0.1,0.1-0.1,0.1-0.2c0-0.1,0-0.1,0-0.2
				c0-0.1,0-0.1-0.1-0.2c-0.5,0.1-1,0.4-1.3,0.8c-0.3,0.4-0.8,0.7-1.4,0.8c-0.2-0.6-0.2-1.3-0.1-1.9c-0.1,0-0.3,0.1-0.4,0.3
				c-0.1,0.1-0.2,0.3-0.2,0.4c0,0.3-0.2,0.4-0.6,0.3c-0.4-0.3-0.7-0.7-1-1.1c-0.3-0.4-0.6-0.7-1-1c0.4-0.2,0.6-0.4,0.5-0.7
				C2,97.2,1.9,97,1.6,96.8c-0.3-0.2-0.6-0.4-0.9-0.5C0.5,96.1,0.2,96,0,96c0.1-0.3,0.3-0.5,0.6-0.5c0.2,0,0.5,0.1,0.7,0.2
				c0.2,0.1,0.4,0.2,0.6,0.2c0.2,0,0.3-0.2,0.4-0.6c0.1,0,0.2,0.1,0.2,0.2L2.8,96c0.1,0.2,0.2,0.2,0.3,0.2s0.3-0.2,0.6-0.6
				c0.4-0.6,1-1,1.7-1.1c0.7-0.2,1.5-0.4,2.2-0.7c3-1.2,6.2-2.1,9.4-2.5c1.9-0.3,3.8-0.5,5.7-0.6c1.9-0.1,3.7-0.2,5.6-0.2
				s3.8,0,5.8,0.1s3.8,0.2,5.8,0.3l6.8,0.4c2.1,0.1,4.2,0.4,6.3,0.7c0.7,0,1.3,0.1,2,0.2c0.5,0.1,1.1,0.1,1.6,0
				c0.5-0.2,1-0.2,1.5-0.2c0.6,0,1.1,0.1,1.6,0.2c0.7,0.1,1.3,0.2,1.7,0.3c0.2,0,0.5,0,0.7-0.1c0.2-0.1,0.4-0.2,0.6-0.4
				c0.6-0.1,1.1-0.1,1.7,0c0.6,0.1,1.1-0.3,1.4-1c0.2-0.4,0.4-0.7,0.6-1c0.4-0.6,0.6-0.8,0.6-0.8c0.1-0.6,0.2-1.2,0.2-1.8
				c0-0.6,0.2-1.3,0.4-1.8c0.4-0.6,0.7-1.2,0.9-1.8c0.2-0.6,0.4-1.2,0.6-1.8c-0.1-0.2-0.2-0.2-0.5,0.1c-0.3,0.2-0.4,0.5-0.6,0.8
				c0-0.5,0.1-0.9,0.2-1.4c0.1-0.4,0.3-0.9,0.4-1.3c0.2-0.4,0.3-0.8,0.4-1.2c0.1-0.4,0.2-0.9,0.1-1.3c0.4,0.1,0.7,0.3,0.9,0.7
				c0.2,0.3,0.4,0.6,0.5,0.9c0.2,0,0.4-0.1,0.5-0.1c0.2-0.1,0.3-0.2,0.4-0.4c0.2-0.3,0.3-0.7,0.4-1c0.3,0,0.6,0.2,0.8,0.7
				s0.6,0.5,0.8,0.2c0.2-0.2,0.3-0.4,0.4-0.6c0.1-0.2,0.3-0.3,0.6-0.2c0,0.3,0.1,0.4,0.3,0.3s0.3,0.1,0.2,0.4
				c-0.2,0.1-0.4,0.2-0.5,0.3c0,0-0.2-0.1-0.4-0.4c-0.3,0.3-0.2,0.6,0.2,0.8c0.4,0.2,0.7,0.4,1,0.7l0.3-0.7c0.1-0.2,0.4-0.2,0.9-0.1
				c-0.1,0.7,0,1.4,0.3,2.1c0.3,0.6,0.5,1.4,0.4,2.1c-0.1,0.3-0.2,0.7-0.4,1c-0.2,0.4-0.4,0.8-0.5,1.2c-0.1,0.7-0.4,1.3-0.7,1.9
				c-0.4,0.6-0.8,1.2-1.1,1.8c-0.4,0.6-0.7,1.2-1,1.8c-0.3,0.6-0.5,1.2-0.4,1.9h1.1c0.4,0,0.7,0.1,1,0.2l-0.2,0.3l2.1,0.3
				c0.5,0.2,1,0.3,1.6,0.3c0.6,0.1,1.2,0.2,1.7,0.5c-0.2-0.3-0.5-0.5-0.8-0.6c-0.3-0.1-0.3-0.3,0-0.7c0.1,0.3,0.7,0.4,1.7,0.5
				s2.2,0.1,3.5,0.1c1.5,0,3,0,4.4-0.1c0.9-0.1,1.8-0.1,2.7,0.1c0-0.1-0.1-0.2-0.2-0.3s-0.2-0.1-0.3-0.2c-0.1,0-0.3,0-0.4,0
				c-0.1,0.1-0.3,0.1-0.4,0.1c-0.1,0-0.2-0.1-0.2-0.3c0.6-0.2,1.2-0.3,1.8-0.2c0.6,0,1.3,0,1.9-0.2c0.3,0.2,0.4,0.3,0.3,0.4
				s-0.2,0.1-0.4,0.1h-0.8c-0.3,0-0.5,0.1-0.8,0.2c0.2,0.1,0.5,0.2,0.7,0.2h0.8c0.3,0,0.5,0,0.8,0.2c0.2,0.1,0.4,0.3,0.5,0.5
				c0.4-0.4,0.8-0.8,1.3-1.2c0.5-0.4,1.2-0.6,1.8-0.5c0.1,0.3,0,0.4-0.2,0.4S98,93.6,98,93.9c0.1,0,0.2,0,0.3,0
				c0.1,0,0.2-0.1,0.3-0.1c0.2-0.1,0.4-0.2,0.7-0.3c0.2-0.1,0.4-0.1,0.6-0.2c0.2,0,0.4,0.2,0.5,0.5c0.1-0.7,0.5-0.9,1.3-0.8
				c-0.1,0.1-0.1,0.2-0.1,0.3s0,0.2,0.1,0.3c0.1,0.2-0.1,0.4-0.4,0.6c0.1,0.3,0.2,0.4,0.3,0.3c0.1-0.1,0.3-0.2,0.4-0.2
				c-0.2-0.1-0.3-0.2-0.2-0.3c0-0.2,0.1-0.3,0.3-0.4c0.2-0.1,0.3-0.3,0.6-0.4c0.1-0.1,0.3-0.2,0.5-0.2c0.4-0.1,0.9-0.1,1.4,0
				c0.2,0.1,0.5,0.1,0.7,0.1s0.5-0.1,0.7-0.2c-0.2,0.3-0.4,0.5-0.7,0.6c-0.2,0-0.5,0-0.8,0c0.3,0.1,0.7,0.2,1,0.1
				c0.3-0.1,0.7-0.2,1-0.3l-0.4,0.5c0.3-0.1,0.7-0.2,1-0.2h0.9l-0.2,0.2c0,0-0.1,0.1-0.1,0.1c0,0-0.1,0-0.1,0
				c0.5,0.1,0.9,0.1,1.4,0.1c0.2,0,0.4,0,0.6-0.1c0.2-0.1,0.3-0.2,0.4-0.4c-0.2,0.1-0.3,0.1-0.5,0.1s-0.3-0.1-0.5-0.1
				c0.9-0.5,2-0.8,3-0.9l3.1-0.1c0.3-0.1,0.7-0.3,0.9-0.5c0.5-0.4,0.9-0.8,1.3-1.2l1.4-1.4c0.5-0.5,0.8-0.8,1.1-1.1
				c1-0.9,1.9-1.9,2.8-3c0.9-1.1,2-2.1,3.2-3c0.8-0.6,1.6-1.2,2.4-1.9c0.6-0.6,1.3-1.1,2.2-1.2c-2.3,1.8-4.6,3.8-6.7,5.7
				c-2.2,2-4.2,4.1-6,6.4c1.3-0.6,2.5-1.5,3.4-2.6c1.2-1.3,2.2-2.3,3-3.3c1.1-1.3,2.2-2.4,3.5-3.5c1.3-1.1,2.6-2.1,4-3
				c-0.1-0.3-0.3-0.4-0.4-0.2c-0.2,0.2-0.3,0.2-0.4,0c0.1-0.2,0.4-0.4,0.6-0.5c0.2-0.1,0.5-0.2,0.7-0.3v0.8c0.3,0,0.6-0.3,0.7-0.8
				c0-0.3-0.1-0.5-0.2-0.4s-0.2-0.1-0.1-0.5c0.1,0.3,0.2,0.4,0.3,0.3c0.2,0,0.3-0.1,0.4-0.2c0.2-0.1,0.3-0.2,0.5-0.2
				c0.1,0,0.2,0,0.2,0s0.1,0.1,0.2,0.1c0.3,0.3,0.3,0.5,0,0.5c-0.1,0-0.1,0-0.2,0c-0.1,0-0.1,0-0.1,0.1c0,0-0.1,0.1-0.1,0.1
				s0,0.1,0,0.2c1.9-0.9,4-2,6.2-3.3c2.4-1.3,4.9-2.3,7.5-2.8c0-0.2-0.2-0.3-0.5-0.2c-0.2,0-0.5,0-0.7-0.1c3.3-1,6.8-1.6,10.2-2
				c-2.2-0.2-4.4-0.1-6.5,0.3c-2,0.4-3.9,0.8-5.6,1.1c0.5-0.4,1.1-0.6,1.7-0.7c0.6-0.1,1.3-0.2,1.9-0.2s1.3-0.2,1.9-0.2
				c0.6-0.1,1.2-0.3,1.8-0.6c0.6-0.3,1.2-0.4,1.8-0.3c0.6,0.1,1.3,0.2,1.9,0.2c-0.1,0,0,0,0.2-0.1c0.2,0,0.4-0.1,0.6-0.2
				c0.2-0.1,0.4-0.1,0.6-0.2s0.3-0.1,0.2-0.1c0.9,0,1.9,0.1,2.8,0.2c1,0.2,2,0.3,2.9,0.3h2.5c0.8,0,1.6,0.1,2.4,0.4
				c-0.4-0.3-0.8-0.4-1.2-0.4l-1.9-0.3l-1.8-0.2c-0.5-0.1-0.8-0.1-0.7-0.2s-0.2-0.3-0.7-0.3s-1-0.1-1.6-0.1s-1.2-0.1-1.7-0.2
				c-0.4,0-0.8-0.1-1.1-0.3c1.9-0.1,3.9,0,5.9,0.3c2,0.3,3.9,0.5,5.9,0.6c-0.6-0.5-1.4-0.8-2.1-1c-0.9-0.2-1.8-0.3-2.7-0.4
				c0.3-0.2,0.7-0.3,1-0.3c0.4,0,0.7,0.1,1.1,0.2c0.7,0.3,1.5,0.5,2.3,0.7h0.6c0.1,0,0.2,0,0.3-0.1c0.1-0.1,0.2-0.2,0.2-0.3
				c0.3-0.1,0.6,0,0.9,0.4c0.2,0.3,0.4,0.5,0.6,0.8c0.3,0,0.7,0,1,0.1c0.4,0.4,0.8,0.9,1,1.4c0.3,0.4,0.5,0.6,0.6,0.4
				c0.2-0.1,0.5-0.2,0.7-0.2c0.3,0.1,0.5,0.3,0.6,0.5c0.1,0.1,0.2,0.2,0.3,0.3c0.1,0.1,0.2,0.1,0.4,0.1c0.6-0.2,1.1,0.2,1.6,1.2
				c0.5,0.9,0.8,2,0.9,3c0.5,1.7,0.3,3.5-0.6,5.1c-1,1.6-2.3,3-3.9,4.1c-1.9,1.3-3.9,2.4-6.1,3.2c-2.3,0.9-4.6,1.7-6.9,2.4
				s-4.5,1.2-6.6,1.7s-3.8,0.8-5,1.1c-3.3,0.7-6.7,1.3-10.1,1.6c-3.3,0.3-6.7,0.8-10.1,1.4c-1.2,0.2-2.4,0.3-3.5,0.4
				c-1.2,0.1-2.3,0.3-3.4,0.6c-0.9,0.2-1.8,0.7-2.5,1.4c-0.6,0.6-1.3,1.3-2,1.9c-3.2,4-6.2,8.3-8.8,12.7c-2.7,4.5-5.1,9.1-7.3,13.9
				c-0.9,2.1-1.8,4.3-2.6,6.4S97.3,137.4,96.7,139.7L96.7,139.7z M44.1,157.1c0.3,1.1,0.3,2.2,0.2,3.4c-0.2,1.1-0.2,2.3-0.2,3.5
				c-0.4-1-0.5-2.1-0.3-3.2C44,159.6,44.1,158.3,44.1,157.1z M44,165.4c0,0,0.1,0,0.1,0c0,0,0.1,0,0.1,0.1c0,0,0.1,0.1,0.1,0.1
				c0,0,0,0.1,0,0.1c0,0.2,0,0.5,0,0.7c0,0.3,0,0.5,0,0.8c0,0.1,0,0.2,0.1,0.3c0.1,0.1,0.2,0.1,0.3,0.2c-0.1,0-0.2,0-0.4-0.1
				c-0.1,0-0.2-0.1-0.3-0.2c-0.1-0.1-0.2-0.2-0.2-0.3c0-0.1-0.1-0.2-0.1-0.4C43.9,166.3,43.9,165.8,44,165.4L44,165.4z M47.1,175
				c0.1,0.1,0.2,0.3,0.2,0.6c0,0.2,0,0.3-0.1,0.5s-0.2,0.2-0.3,0.3c-0.3,0-0.3-0.2-0.2-0.5s0-0.6-0.2-0.7c-0.2,0.7-0.5,0.9-0.9,0.5
				c-0.3-0.3-0.7-0.6-1.1-0.7c0.1-0.5,0.3-0.6,0.6-0.3c-0.1-0.5-0.3-1.1-0.5-1.8c-0.1-0.3-0.2-0.6-0.2-0.9c0-0.3,0.1-0.6,0.2-0.9
				c0.3,0.1,0.4,0.3,0.2,0.6s-0.1,0.6,0.1,0.7s0.3-0.1,0.2-0.4c-0.1-0.2-0.1-0.5,0-0.7c0.2,0.3,0.4,0.6,0.5,1
				c0.2,0.4,0.3,0.9,0.4,1.3s0.3,0.8,0.4,1.1c0,0.1,0.1,0.2,0.2,0.3C46.8,174.9,47,175,47.1,175L47.1,175z M44.6,169.4
				c0.1-0.3,0.2-0.2,0.2,0.1v0.6c0.1,0.2,0,0.2-0.2,0.1S44.5,169.7,44.6,169.4L44.6,169.4z M47.4,156.6c-0.1-0.7,0-1.4,0.2-2.1
				c0.2-0.8,0.2-1.6,0-2.4c-0.3,0.9-0.5,1.8-0.6,2.7c-0.1,0.9-0.2,1.9-0.2,2.8s-0.1,1.9-0.1,2.8c0,0.9-0.2,1.8-0.4,2.7
				c-0.1,0.4-0.1,0.9-0.1,1.3c0,0.7,0,1.4,0.1,2.1c0.1,0.7,0.2,1.4,0.3,2c0.2,0.6,0.4,0.8,0.7,0.7c-0.2-0.4-0.4-0.8-0.4-1.2
				c-0.1-0.6-0.1-1.1-0.1-1.7c0-0.6,0-1.2,0.1-1.8c0.1-0.6,0.1-1.1,0.1-1.4v-3.3C47.1,158.8,47.2,157.6,47.4,156.6L47.4,156.6
				L47.4,156.6z M46.6,169.6c0.2,0.5,0.3,1.1,0.3,1.6c0,0.2,0,0.4,0.1,0.6c0.1,0.2,0.2,0.4,0.4,0.5c-0.3-0.5-0.3-1.1-0.2-1.6
				C47.4,170.3,47.2,169.9,46.6,169.6L46.6,169.6L46.6,169.6z M47,144.3c0.1,0.1,0.2,0.5,0.2,1c0,0.4-0.1,0.9-0.2,1.3
				c-0.2-0.2-0.3-0.4-0.3-0.6c-0.1-0.2,0-0.4,0-0.7L47,144.3L47,144.3z M47.3,142.4c0.1-0.1,0.3-0.1,0.4-0.1c0.1,0,0.2-0.2,0.1-0.4
				c0.3,0,0.3,0.2,0.2,0.5c0,0.2-0.1,0.4-0.2,0.6c-0.1,0-0.2-0.1-0.2-0.2S47.4,142.4,47.3,142.4L47.3,142.4z M49.6,143.3
				c0.2-0.4,0.4-0.7,0.7-0.9c0.3-0.3,0.2-0.7-0.2-1.1c-0.5,1.6-0.9,3.3-1.4,5.1c-0.4,1.8-0.7,3.6-0.7,5.4c0.3-1.3,0.6-2.7,0.8-4.2
				S49.2,144.7,49.6,143.3L49.6,143.3L49.6,143.3z M49.3,169.2c-0.1-0.8-0.2-1.5,0-2.3c0.1-0.6,0-1.3-0.3-1.8
				c-0.2,0.3-0.3,0.6-0.3,0.9c0,0.3,0,0.7,0.1,1C48.7,167.8,49,168.5,49.3,169.2C49.3,169.1,49.3,169.2,49.3,169.2z M50.5,93
				l1.5,0.2c0.5,0.1,1,0,1.5-0.1c-0.5,0-1-0.1-1.4-0.3c-0.3-0.1-0.5-0.1-0.8-0.1C51,92.8,50.7,92.9,50.5,93z M50.9,139.3
				c0.4-0.5,0.6-1.2,0.6-1.9c-0.5,0-0.7,0.2-0.7,0.7C50.8,138.5,50.8,138.9,50.9,139.3C50.9,139.3,50.9,139.3,50.9,139.3z
				 M51.6,136.6c0.1-0.1,0.2-0.3,0.3-0.4c0.1-0.2,0.2-0.4,0.2-0.7c0-0.2,0-0.4,0-0.6c0-0.1-0.1-0.1-0.2,0c0.1,0.3-0.1,0.6-0.4,0.8
				C51.2,136.1,51.2,136.4,51.6,136.6L51.6,136.6L51.6,136.6z M52.4,134c0.2-0.4,0.4-0.7,0.5-1.1c0.1-0.4,0.2-0.8,0.3-1.1
				c-0.4,0.2-0.7,0.6-0.8,1c-0.1,0.2-0.2,0.4-0.2,0.6C52.2,133.5,52.3,133.8,52.4,134L52.4,134z M53.7,123.5
				c-0.4-0.1-0.5-0.2-0.2-0.3c0.1,0,0.1-0.1,0.2-0.1s0.1-0.1,0.1-0.2c0-0.1,0-0.1,0-0.2c0-0.1,0-0.1-0.1-0.2
				c0.3,0.1,0.4,0.3,0.2,0.5C53.9,123.2,53.8,123.4,53.7,123.5C53.7,123.5,53.7,123.5,53.7,123.5z M53.7,130
				c0.1-0.1,0.2-0.4,0.3-0.8s0.2-0.7,0-0.8c-0.2,0.3-0.3,0.6-0.5,0.8C53.4,129.6,53.5,129.8,53.7,130L53.7,130z M54.2,93.3
				c0.3-0.1,0.6-0.1,0.9,0c0.4,0.1,0.6,0,0.6-0.2c-0.3,0.1-0.6,0.1-0.9,0C54.5,92.9,54.3,93,54.2,93.3L54.2,93.3z M55.5,124.3
				c0.1-0.7,0.4-1.3,0.8-1.8c0.2-0.3,0.3-0.6,0.3-0.9s-0.1-0.6-0.3-0.9c-0.2,0.6-0.4,1.2-0.6,1.8C55.4,123.1,55.4,123.7,55.5,124.3
				L55.5,124.3z M57.3,112.5c0.1,0.4-0.1,0.6-0.5,0.5c0-0.1,0-0.1,0-0.2c0-0.1,0.1-0.1,0.1-0.2c0-0.1,0.1-0.1,0.2-0.1
				C57.2,112.5,57.2,112.5,57.3,112.5C57.3,112.5,57.3,112.5,57.3,112.5z M57.2,93.5c0.5,0.2,1,0.2,1.5,0c0.3-0.2,0.1-0.2-0.4-0.2
				c-0.1,0.1-0.3,0.1-0.7-0.2S57.2,93,57.2,93.5L57.2,93.5z M58,117.3c0.1-0.8,0.4-1.5,0.8-2.2c0.2-0.3,0.3-0.6,0.3-1
				c0-0.3,0-0.7-0.1-1c0,0.3-0.1,0.7-0.2,1c-0.2,0.4-0.3,0.7-0.5,1.1c-0.2,0.3-0.3,0.7-0.3,1C57.8,116.6,57.9,116.9,58,117.3z
				 M62,93.8c0.1-0.3,0-0.4-0.2-0.4c-0.2,0-0.5,0-0.7,0c-0.3,0.1-0.7,0.2-1.1,0.3c0.2-0.1,0.4-0.1,0.6-0.1s0.4,0,0.6,0.1
				c0.1,0.1,0.3,0.2,0.5,0.2C61.7,93.9,61.8,93.8,62,93.8z M61.8,100.4c0.3,0.1,0.4,0.3,0.2,0.6s-0.4,0.5-0.7,0.4
				c0.1-0.2,0.2-0.3,0.2-0.6C61.7,100.8,61.7,100.6,61.8,100.4C61.8,100.4,61.8,100.4,61.8,100.4z M66.9,87.3
				c-0.3-0.1-0.3-0.2,0-0.5c0.2-0.2,0.4-0.5,0.4-0.8c0.2,0.1,0.2,0.3,0,0.6C67.2,86.9,67,87.1,66.9,87.3L66.9,87.3z M75.7,93.2
				l0.9,0.2c0.4,0.1,0.8,0,1.2-0.1c-0.1,0.3-0.5,0.5-1.1,0.5C76.1,93.9,75.7,93.7,75.7,93.2L75.7,93.2z M89.5,135.9
				c-0.1-0.2-0.1-0.4-0.1-0.6c0-0.2,0.1-0.4,0.3-0.6c0.2-0.2,0.3-0.4,0.4-0.7c0.1-0.3,0.1-0.5,0.1-0.8c0.1-0.1,0.1-0.1,0.1,0.2
				c0,0.3-0.1,0.7-0.2,1c-0.1,0.4-0.2,0.8-0.3,1.1S89.5,136.1,89.5,135.9L89.5,135.9z M90.8,95.1c-0.1,0.3,0,0.5,0.5,0.5
				s0.6-0.1,0.5-0.3l-0.4-0.2C91.1,95,90.9,95,90.8,95.1C90.7,95.1,90.7,95.1,90.8,95.1z M93,95.8c0.2-0.1,0.4-0.3,0.6-0.5
				c0.2-0.3,0.5-0.4,0.9-0.5c-0.4-0.1-0.8-0.2-1.2-0.1c-0.4,0.1-0.8,0.2-1.2,0.4c0.3-0.1,0.5,0,0.5,0.3S92.8,95.9,93,95.8L93,95.8z
				 M93.7,95.5c0.2,0.1,0.5,0.2,0.9,0.2s0.6,0,0.6-0.2c-0.1-0.1-0.1-0.2-0.3-0.3c-0.1-0.1-0.3-0.1-0.4,0
				C94.3,95.2,94,95.3,93.7,95.5L93.7,95.5z M96.1,121.3c-0.2,0.3-0.3,0.7-0.4,1c-0.1,0.2-0.1,0.3-0.3,0.4c-0.1,0.1-0.3,0.2-0.5,0.2
				c0.1-0.4,0.3-0.7,0.5-1c0.1-0.1,0.2-0.3,0.2-0.5s-0.1-0.3-0.2-0.5c0.2,0,0.3,0,0.3,0.2c0,0,0,0.1,0,0.1c0,0,0,0.1,0.1,0.1
				c0,0,0.1,0,0.1,0C96,121.3,96,121.3,96.1,121.3C96.1,121.3,96.1,121.3,96.1,121.3z M103.1,110.6c0,0.3-0.1,0.6-0.2,0.8
				c-0.1,0.3-0.3,0.5-0.5,0.7c-0.2,0.1-0.4,0.3-0.4,0.6c-0.1,0.2,0,0.5,0.1,0.7c0-0.1,0-0.1,0-0.2c0-0.1,0.1-0.1,0.1-0.2
				c0.1,0,0.1-0.1,0.2-0.1c0.1,0,0.1,0,0.2,0c0-0.2,0.1-0.5,0.2-0.7c0.1-0.3,0.3-0.5,0.4-0.8c0.1-0.2,0.2-0.4,0.2-0.6
				C103.4,110.8,103.3,110.7,103.1,110.6L103.1,110.6L103.1,110.6z M105.4,94.3c0-0.1-0.3-0.1-0.8-0.2c-0.4,0-0.9-0.2-1.3-0.4
				c0,0.1,0,0.1-0.1,0.2c-0.1,0.1-0.1,0.1-0.2,0.1c-0.2,0.1-0.2,0.3,0,0.6c0.2-0.1,0.4-0.1,0.6-0.1c0.3,0,0.5,0,0.8,0.1
				c0.2,0,0.5,0,0.7,0c0.1,0,0.1-0.1,0.2-0.1C105.4,94.4,105.4,94.4,105.4,94.3C105.4,94.3,105.4,94.3,105.4,94.3z M104,109.6
				c0,0.1,0,0.2-0.1,0.3c-0.1,0.1-0.1,0.2-0.2,0.2c-0.1,0-0.2,0.1-0.2,0.1c-0.1,0.1-0.1,0.2-0.1,0.2c0.1,0,0.3,0,0.4,0
				c0.1,0,0.3-0.1,0.4-0.2C104.5,110,104.4,109.8,104,109.6z M104.9,108.2c0,0.1-0.1,0.3-0.1,0.4s-0.2,0.2-0.3,0.3
				c-0.3,0.2-0.3,0.4,0,0.5c0-0.1,0.1-0.3,0.4-0.6S105.2,108.3,104.9,108.2C104.9,108.2,104.9,108.2,104.9,108.2z M105.4,105.4
				c-0.4-0.1-0.4-0.3-0.1-0.4c0.1,0,0.1-0.1,0.2-0.1c0.1-0.1,0.1-0.1,0.1-0.2s0-0.2,0-0.2c0-0.1,0-0.2-0.1-0.2
				c0.3,0.1,0.4,0.3,0.2,0.6C105.6,104.9,105.5,105.2,105.4,105.4L105.4,105.4L105.4,105.4z M106,106.2c0,0.1,0,0.2-0.1,0.3
				c-0.1,0.1-0.1,0.2-0.2,0.2c-0.2,0.1-0.2,0.3-0.1,0.7c0.2,0,0.3-0.1,0.4-0.2c0.1-0.1,0.2-0.2,0.3-0.3
				C106.6,106.5,106.4,106.3,106,106.2L106,106.2z M107.3,93.1c0.1,0.3-0.1,0.4-0.4,0.3c-0.2-0.1-0.5-0.1-0.7-0.1
				c-0.1-0.3,0.1-0.3,0.4-0.2C106.8,93.1,107,93.2,107.3,93.1C107.3,93.1,107.3,93.1,107.3,93.1z M107.6,102.6
				c-0.3-0.2-0.3-0.4,0-0.5s0.5-0.3,0.3-0.6c0.5,0.1,0.6,0.2,0.2,0.5S107.6,102.5,107.6,102.6C107.6,102.6,107.6,102.6,107.6,102.6z
				 M108.3,93.3c-0.3-0.1-0.2-0.2,0.3-0.3c0.4-0.1,0.8-0.1,1.1-0.2c0.1,0.4-0.1,0.6-0.4,0.6C109,93.2,108.6,93.2,108.3,93.3
				C108.3,93.3,108.3,93.3,108.3,93.3z M110.3,100.7c-0.3,0.1-0.6,0.2-0.7,0.4c-0.2,0.2-0.3,0.5-0.3,0.8c0.1-0.2,0.3-0.5,0.4-0.7
				C110,101.1,110.2,100.9,110.3,100.7C110.3,100.7,110.3,100.7,110.3,100.7z M112.5,97.7c-0.5,0.3-0.9,0.8-1.1,1.3s-0.6,1-1.1,1.3
				c0.3,0,0.5,0,0.4,0.2s0.2,0.1,0.7-0.2c0-0.2,0-0.5,0.1-0.7c0.1-0.2,0.2-0.4,0.4-0.6C112.2,98.6,112.4,98.1,112.5,97.7L112.5,97.7
				z M111,93.3c0,0.2,0.1,0.4,0.2,0.6c0.1,0.2,0.3,0.3,0.5,0.4c0.2,0.1,0.4,0.1,0.7,0.1s0.4-0.2,0.6-0.3c-0.3-0.5-0.6-0.5-1.1-0.1
				c0.1-0.4,0.3-0.6,0.6-0.5s0.5-0.1,0.4-0.4c-0.3,0-0.5,0-0.8,0.1C111.8,93.2,111.5,93.3,111,93.3L111,93.3z M114.8,94.1
				c-0.2-0.2-0.4-0.4-0.6-0.6c-0.2-0.2-0.5-0.3-0.8-0.3c0.2,0.2,0.4,0.4,0.5,0.7C114.1,94.2,114.4,94.2,114.8,94.1L114.8,94.1z
				 M136.7,80.6c-2.7,1.5-5.1,3.5-7.1,5.8c-2,2.3-3.9,4.6-5.8,7c1.6-0.3,3.2-0.5,4.8-0.6c1.6-0.1,3.2-0.3,4.8-0.6c1-0.2,2-0.4,3-0.7
				c0.9-0.3,1.9-0.4,2.9-0.4c0.4-0.1,0.8-0.1,1.2,0.1c0.4,0.1,0.8,0.1,1.2,0c0.1,0,0.3-0.1,0.4-0.2s0.2-0.2,0.2-0.3
				c0.1-0.2,0.4-0.4,0.9-0.5c0.4-0.1,0.8-0.1,1.2,0c0.3,0.1,0.7,0.1,1,0h1h1.4c0.5,0,0.9-0.1,1.3-0.2s0.6-0.2,0.7-0.3
				c-0.3,0.1-0.5,0.1-0.5-0.2c0-0.3,0-0.6,0.1-0.8c-0.3,0.2-0.6,0.3-0.8,0.4c-0.2,0.1-0.5,0-0.9-0.3c0.4,0,0.8-0.1,1.1-0.2
				c0.4-0.1,0.9-0.1,1.3,0.1c-0.4,0-0.6,0.2-0.5,0.5h1.3c0.4,0,0.6,0.3,0.6,0.8c-1.4,0.3-2.7,0.5-4.1,0.6c-1.4,0.1-2.8,0.3-4.1,0.6
				c-0.9,0.3-1.6,0.5-2,0.6c-0.7,0.1-1.4,0.1-2-0.2c-0.1,0.2-0.1,0.5-0.1,0.8c0,0.1,0,0.2,0,0.3c0,0.1-0.1,0.2-0.1,0.3
				c0.2,0,0.3-0.1,0.4-0.1c0.1-0.1,0.3-0.2,0.4-0.3c0.3-0.3,0.5-0.3,0.7,0c-0.1,0.3-0.2,0.4-0.4,0.3c-0.1,0-0.1,0-0.1,0
				s-0.1,0-0.1,0c0,0-0.1,0.1-0.1,0.1c0,0-0.1,0.1-0.1,0.1c0.8-0.1,1.6-0.2,2.3-0.4c0.8-0.2,1.6-0.3,2.4-0.3h0.4c0.2,0,0.5,0,0.7,0
				c0.2,0,0.4-0.1,0.5-0.2c0.1-0.1,0-0.2-0.2-0.4c0.4,0,0.9-0.1,1.3-0.3c0.4-0.2,0.7-0.5,1-0.8c0.1,0,0.1,0.1,0.1,0.1
				c0,0.1,0.1,0.1,0.1,0.2c0,0.1,0,0.2,0.1,0.2c0.4,0,0.8-0.1,1.2-0.2l2-0.4c0.6-0.1,1.3-0.3,1.9-0.5c0.5-0.2,0.8-0.4,0.8-0.5
				c-0.2-0.1-0.5-0.2-0.7-0.2s-0.5,0.1-0.7,0.2c-0.4,0.1-0.8,0.3-1.1,0.6c-0.1-0.5,0.3-0.8,1-1.1c0.8-0.3,1.7-0.5,2.5-0.7
				c1-0.2,1.9-0.4,2.9-0.5c0.7,0,1.3-0.2,1.9-0.6c-0.7,0-1.4,0.1-2.1,0.5c-0.2,0.2-0.5,0.3-0.8,0.3c-0.3,0.1-0.6,0-0.9,0
				c0.3-0.2,0.6-0.3,0.9-0.4c0.3-0.1,0.6-0.2,0.8-0.4c-0.2-0.1-0.4-0.1-0.7,0c-0.2,0-0.4,0.1-0.6,0.2c-0.1,0.1-0.2,0.1-0.3,0.1
				c-0.1,0-0.2,0-0.3,0s-0.2-0.1-0.3-0.1c-0.1-0.1-0.1-0.1-0.2-0.2c1.7-0.3,3.4-0.8,5-1.5c1.5-0.7,3.2-1.2,4.9-1.4
				c-0.7,0.3-1.4,0.7-2,1c-0.7,0.4-1.5,0.6-2.3,0.8c0,0.4,0.1,0.5,0.4,0.2s0.4-0.2,0.6,0.2c-0.2,0.1-0.4,0.2-0.6,0.2
				c-0.1,0-0.2,0-0.2,0.1s-0.1,0.1-0.2,0.2c0.4-0.1,0.9-0.2,1.3-0.3c0.2,0,0.4-0.1,0.5-0.2s0.3-0.2,0.4-0.4c-0.1,0-0.2-0.1-0.3-0.2
				c-0.1-0.1-0.1-0.2-0.2-0.3c0.5,0,1-0.1,1.4-0.4c0.2-0.1,0.5-0.2,0.8-0.2c0.3,0,0.6,0.1,0.8,0.2c0-0.3,0-0.6,0.2-0.9
				c0.1-0.3,0.3-0.5,0.5-0.8c0.4-0.4,0.9-0.8,1.4-1.2c0.5-0.4,1.1-0.8,1.6-1.2c0.5-0.5,0.9-1.1,1.1-1.8c0.3,0,0.6-0.1,0.8-0.3
				c0.2-0.2,0.4-0.4,0.6-0.7c0.2-0.4,0.3-0.9,0.3-1.3c-1.3,1.4-2.9,2.6-4.7,3.5c-1.9,1-3.8,1.6-5.9,2c0.9-0.2,1.7-0.5,2.5-0.9
				c1.2-0.5,2.4-1.1,3.5-1.7c1.1-0.6,2.1-1.4,3.1-2.2c0.4-0.3,0.7-0.6,0.9-1c0.2-0.4,0.4-0.9,0.4-1.3c0-0.9-0.6-1.6-1.7-2.3
				c-1.3-0.7-2.8-1.2-4.3-1.4c-1.5-0.2-3.1-0.2-4.6-0.1c-0.7,0.1-1.4,0.1-2,0.2L158,72c-0.2,0-0.5-0.1-0.7-0.2
				c-0.4-0.1-0.7-0.2-0.8-0.3c0,0.3,0,0.5,0.1,0.4s0.1,0,0.2,0.3c-0.4,0.1-0.7,0.1-1,0.2c-0.3,0-0.6,0-0.9-0.2
				c0.1-0.2,0.2-0.3,0.5-0.2s0.3-0.1,0.2-0.5c-0.6-0.3-1-0.4-1.3-0.1c-0.3,0.3-0.8,0.5-1.2,0.6c-0.2-0.1-0.4-0.2-0.7-0.2
				c-0.3-0.1-0.6-0.1-0.9-0.1c-1.2,0-2.4,0.3-3.6,0.7c-1.1,0.3-2.1,0.9-3,1.8c0.2,0,0.4,0,0.7-0.1c0.2-0.1,0.4-0.2,0.6-0.3
				c0.2-0.3,0.4-0.2,0.4,0.2c0-0.1,0.1-0.1,0.1-0.2c0.1,0,0.1-0.1,0.2,0c0.2,0,0.1-0.1-0.2-0.4c1.3-0.1,2.5-0.3,3.7-0.7
				c1.2-0.4,2.5-0.5,3.7-0.3c-3.5,0.4-6.9,1.5-10,3.1c-2.8,1.5-5.4,3.2-8,5C136.6,80.4,136.7,80.5,136.7,80.6L136.7,80.6z
				 M133.6,76.3c-0.1,0.4-0.3,0.6-0.5,0.6c0-0.3,0-0.5,0.1-0.5C133.3,76.4,133.4,76.4,133.6,76.3z M135.7,76.6
				c-0.1-0.1-0.1-0.3-0.2-0.4c0,0-0.2,0-0.5,0.1c0.1-0.1,0.3-0.2,0.4-0.3c0.1-0.1,0.2-0.1,0.3-0.1c0.1,0,0.2,0,0.3,0
				c0.1,0.2,0,0.3-0.1,0.4c-0.1,0-0.1,0.1-0.1,0.1C135.8,76.5,135.7,76.6,135.7,76.6L135.7,76.6z M136.6,89.7
				c0.1,0.2-0.1,0.3-0.4,0.2c-0.3-0.1-0.6-0.1-0.8-0.1c0-0.1,0.2-0.2,0.5-0.1C136.1,89.8,136.4,89.8,136.6,89.7z M135.8,92.8
				c0.3-0.1,0.6-0.1,0.9,0c0.4,0.1,0.5-0.1,0.3-0.6c-0.3,0-0.6,0-0.9,0C136,92.3,135.8,92.5,135.8,92.8L135.8,92.8z M137.8,73.5
				c0.3,0.1,0.4,0.3,0.3,0.5c0,0.1-0.1,0.1-0.1,0.1c-0.1,0-0.1,0.1-0.2,0.1c-0.1,0-0.1,0-0.2,0c-0.1,0-0.1,0-0.2-0.1
				c-0.1-0.3-0.1-0.4,0-0.4S137.8,73.7,137.8,73.5L137.8,73.5L137.8,73.5z M138.1,89.3c0,0.3-0.2,0.5-0.6,0.5
				c-0.1-0.1-0.1-0.2,0.1-0.3C137.8,89.4,137.9,89.3,138.1,89.3L138.1,89.3z M140.2,89.1c-0.1,0.1-0.2,0.2-0.3,0.3s-0.3,0.1-0.4,0.1
				c-0.3,0-0.7,0.1-1.1,0.1c0.1-0.2,0.2-0.3,0.3-0.4c0.1-0.1,0.3-0.1,0.5-0.1H140.2z M139,75c-0.5,0-0.6-0.1-0.6-0.3l0.2-0.5
				c0.2,0.1,0.3,0.2,0.3,0.3C139,74.6,139,75,139,75z M140.1,73.8c0.1,0.5-0.1,0.7-0.6,0.7c0-0.1,0-0.2-0.1-0.3
				c-0.1-0.1-0.1-0.2-0.1-0.3L140.1,73.8L140.1,73.8z M142.8,71.8c0.2,0.3,0.3,0.7,0.3,1.1c-0.4,0.1-0.8,0.2-1.1,0.4
				c-0.4,0.2-0.8,0.4-1.2,0.3c0.4-0.3,0.8-0.7,0.9-1.2C141.7,72.1,142.1,71.8,142.8,71.8L142.8,71.8L142.8,71.8z M145.5,88.3
				c-0.5,0.2-1.1,0.4-1.8,0.8c-0.6,0.3-1.4,0.3-2,0c0.6,0,1.3-0.1,1.9-0.4C144.2,88.4,144.9,88.2,145.5,88.3L145.5,88.3z
				 M145.5,71.4c-0.1,0.1-0.3,0.3-0.6,0.5s-0.5,0.4-0.7,0.6c-0.2,0.1-0.5,0.2-0.7,0.2c-0.2,0-0.4-0.2-0.4-0.5c0.3,0.1,0.7,0,1-0.2
				c0.3-0.2,0.5-0.5,0.6-0.8c0.3-0.1,0.4-0.1,0.4-0.1s0,0.1,0,0.2c0,0.1,0,0.1,0,0.2L145.5,71.4L145.5,71.4z M148.4,87.3
				c0.1,0.3-0.1,0.4-0.4,0.4s-0.4-0.2-0.1-0.5c0.1,0,0.1,0,0.1,0c0,0,0.1,0,0.1,0.1C148.2,87.3,148.3,87.3,148.4,87.3L148.4,87.3z
				 M154.6,70.4c-0.9-0.1-1.7,0-2.6,0.1c-0.9,0.1-1.7,0.5-2.5,1c0.3,0,0.6-0.1,0.9-0.2c0.5-0.1,1-0.3,1.6-0.4s1.1-0.2,1.6-0.3
				c0.4-0.1,0.8-0.1,1.2-0.1L154.6,70.4z M153.5,88.6c-0.3-0.1-0.6-0.2-0.8-0.2h-1c0.2-0.3,0.6-0.5,1-0.6
				C153.1,87.7,153.3,87.9,153.5,88.6L153.5,88.6L153.5,88.6z M153.5,85.4c-0.3-0.1-0.2-0.3,0.2-0.4c0.3-0.2,0.7-0.2,1-0.2
				C154.3,85.1,153.9,85.3,153.5,85.4L153.5,85.4z M154.4,86.1c0.1-0.1,0.2-0.2,0.3-0.3c0.1-0.1,0.3-0.1,0.4-0.1
				c0.3,0,0.5-0.1,0.6-0.3c0.3,0.2,0.2,0.4-0.3,0.5C155,86,154.7,86,154.4,86.1L154.4,86.1z M155.2,89.9c0-0.3,0-0.5,0.1-0.6
				s-0.1-0.1-0.6-0.2C154.7,89.6,154.8,89.8,155.2,89.9L155.2,89.9z M156.2,84.6c-0.3-0.1-0.2-0.2,0.2-0.3c0.3-0.1,0.6-0.2,0.8-0.3
				c0,0.2-0.1,0.3-0.4,0.4C156.6,84.4,156.4,84.4,156.2,84.6L156.2,84.6L156.2,84.6z M156.9,85.4c0,0.1-0.1,0.2-0.3,0.2h-0.6
				c0-0.1,0.1-0.2,0.4-0.2H156.9z M156.6,70.2c0,0.1,0,0.2,0.1,0.2c0,0.1,0.1,0.1,0.2,0.2c0.2,0.1,0.4,0.1,0.6,0.1
				c0.2,0,0.4,0,0.5-0.1c0.2-0.1,0.2-0.2,0.1-0.3c-0.2,0-0.5,0-0.7-0.2c-0.1-0.1-0.3-0.1-0.4-0.1C156.9,70.1,156.8,70.1,156.6,70.2
				C156.6,70.2,156.6,70.2,156.6,70.2z M160.1,70.2c-0.2,0.1-0.5,0.1-0.7,0c-0.4-0.1-0.5,0-0.5,0.3c0.3-0.1,0.6-0.1,0.8,0
				C160.1,70.6,160.3,70.5,160.1,70.2C160.1,70.2,160.1,70.2,160.1,70.2z M160,71.4c-0.2,0-0.4,0-0.6,0.1c-0.2,0.1-0.4,0.2-0.6,0.3
				c0.3-0.1,0.5-0.1,0.8,0C160,71.8,160.2,71.7,160,71.4L160,71.4z M160,86.8h-0.6c-0.4,0-0.5,0.1-0.4,0.4
				C159.6,87.2,160,87.1,160,86.8z M160.6,84.1c-0.1,0.5-0.2,0.8-0.5,0.7c-0.3-0.1-0.7-0.1-1-0.1c0.2-0.2,0.4-0.4,0.7-0.5
				C160,84.1,160.3,84,160.6,84.1L160.6,84.1z M161.3,87.7c0.1,0.4,0.3,0.6,0.4,0.5c0.2-0.1,0.5-0.1,0.7-0.1c0-0.2,0-0.3-0.1-0.5
				c0-0.2-0.2-0.2-0.4-0.1c0.1,0.4,0.1,0.5-0.1,0.3S161.4,87.7,161.3,87.7L161.3,87.7z M163.6,83.6c-0.3-0.3-0.2-0.4,0.2-0.4
				c0.3,0,0.7-0.1,0.9-0.2c0.1,0.4-0.1,0.5-0.4,0.4S163.7,83.3,163.6,83.6L163.6,83.6z M164,86.2c0.1,0,0.2,0,0.2,0
				c0.1,0,0.1-0.1,0.2-0.1l0.4-0.3C164.3,85.7,164.1,85.8,164,86.2L164,86.2L164,86.2z M164.8,87.2c0.4-0.1,0.8-0.2,1.2-0.4
				c0.4-0.2,0.9-0.4,1.2-0.7c-0.3,0-0.6,0.1-0.9,0.2c-0.3,0.1-0.6,0.2-0.9,0.4c-0.3,0.1-0.5,0.2-0.6,0.3S164.6,87.1,164.8,87.2
				L164.8,87.2L164.8,87.2z M166.2,82.3c0,0.4-0.3,0.6-0.9,0.6C165.4,82.6,165.7,82.4,166.2,82.3L166.2,82.3z M167.3,84.8
				c0.8-0.1,1.6-0.3,2.3-0.7c0.6-0.4,1.2-0.8,1.7-1.3c-0.7,0.3-1.4,0.6-2.1,1C168.6,84.1,168,84.4,167.3,84.8
				C167.4,84.8,167.3,84.8,167.3,84.8z M171,68.8c-0.2-0.2-0.5-0.4-0.8-0.5s-0.6-0.1-0.9-0.1C169.8,68.5,170.4,68.7,171,68.8
				L171,68.8z M170.9,82.2h0.6c0.3,0,0.4-0.1,0.3-0.3c-0.2,0-0.4-0.1-0.6-0.2C171.2,81.5,171.1,81.7,170.9,82.2L170.9,82.2
				L170.9,82.2z M173.7,80.4c-0.4,0.2-0.7,0.4-1,0.6c-0.4,0.3-0.4,0.6-0.1,0.8c0.1-0.3,0.3-0.5,0.6-0.7
				C173.4,81,173.6,80.7,173.7,80.4L173.7,80.4z M175.8,70c-0.2,0.3-0.4,0.2-0.7-0.2c-0.2-0.3-0.4-0.5-0.6-0.8
				c0.3-0.3,0.6-0.3,0.8,0.2S175.5,69.9,175.8,70z"/>
			<path d="M201.7,151.2c-0.1,0.2-0.1,0.4-0.2,0.6s-0.2,0.3-0.3,0.2l-0.4,0.6c1.1-0.3,2.2-0.8,3.1-1.5c1.1-0.8,2.3-1.7,3.5-2.6
				s2.2-1.8,3.2-2.5c0.6-0.6,1.4-1,2.3-1.1c0.8,0.2,1.1,0.6,0.8,1.3c-0.3,0.8-0.7,1.5-1.3,2.1c-0.7,0.7-1.3,1.5-2,2.3
				c-0.8,0.9-1.7,1.8-2.7,2.6c-1.7,1.4-3.5,2.8-5.4,4.3s-3.9,2.8-5.8,4c-1.8,1.1-3.7,2.1-5.6,3c-1.5,0.7-3.2,1.1-4.9,1.2
				c-1.1,0-2.2-0.2-3.2-0.6c-1-0.4-1.9-1.1-2.7-1.9c-0.9-0.9-1.5-2-2-3.2c-0.4-1.2-0.6-2.4-0.6-3.7c0-0.9,0.1-1.8,0.2-2.7
				c0.2-1,0.5-2,0.9-2.9c-1.2,0.4-2.3,1.1-3.2,1.9c-1.2,1-2.5,2.2-3.9,3.6c-1.4,1.4-2.8,2.8-4.3,4.3s-2.9,2.9-4.4,4.1
				c-1.3,1.2-2.7,2.2-4.2,3.1c-1.1,0.7-2.3,1.2-3.6,1.2c-1,0-2.1-0.2-3-0.6c-0.9-0.4-1.8-0.9-2.6-1.5c-0.7-0.6-1.3-1.3-1.8-2.1
				c-0.4-0.7-0.7-1.4-0.7-2.2c0-0.7,0.2-1.4,0.7-2c1.3-4.5,3.3-8.7,6-12.4c2.6-3.6,5.6-6.8,8.8-9.8c0.1-0.2,0.2-0.5,0.4-0.6
				c0.2-0.2,0.4-0.3,0.6-0.4c0.2-0.2,0.4-0.4,0.6-0.5c0.2-0.1,0.4-0.2,0.5-0.4c0.3-0.5,0.5-0.8,0.6-0.7c0.2,0,0.4,0,0.6-0.1
				c0.1-0.1,0-0.2-0.1-0.5c-0.1-0.1-0.2-0.2-0.3-0.3c-0.2,0-0.3,0-0.5,0.1c-0.2,0.1-0.4,0.1-0.6,0.1c0.5-0.7,1.2-1.2,2-1.5
				c0.8-0.3,1.7-0.5,2.6-0.4c1.1,0,2.2,0.2,3.3,0.5c1.1,0.4,2.1,0.8,3.2,1.3c0.9,0.5,1.7,1,2.4,1.7c0.5,0.4,0.9,1.1,1,1.7
				c0.4,0,0.6-0.2,0.6-0.5s0.1-0.5,0.3-0.5c0.5,0,0.8,0,0.7,0.1s0.1,0.1,0.4,0.1c0.5,0.1,1,0.3,1.4,0.6c0.7,0.4,1,0.8,1,1.1
				c0,0.1-0.2,0.1-0.6,0s-0.7-0.2-0.8-0.1c1.1,0.4,2.1,1.2,2.7,2.2c0.5,1.1,0.7,2.2,0.7,3.4c0,1.1-0.1,2.1-0.2,3.1
				c-0.2,1.1-0.4,2.2-0.6,3.3s-0.4,2.1-0.6,3.2c-0.2,0.9-0.3,1.9-0.3,2.8v1.1c0,0.5,0.4,0.7,1.1,0.7c2.6-0.4,5-1.3,7.3-2.5
				c2.5-1.3,5.4-2.9,8.8-5c0.1-0.1,0.2-0.1,0.4-0.2c0.1-0.1,0.1-0.1,0.2-0.1C201.5,151.2,201.6,151.2,201.7,151.2L201.7,151.2z
				 M162.4,157.1c1.1-1,2-1.8,2.7-2.4s1.4-1.2,2-1.7s1.1-1.1,1.6-1.7c0.6-0.7,1.2-1.5,1.7-2.3c0.8-1.3,1.4-2.7,1.8-4.2
				c0.1-0.4,0.1-0.8,0.1-1.2s0-0.9,0-1.3c0-1.6-0.2-3.1-0.7-4.7c-2.9,2.2-5.5,4.8-7.6,7.8c-2.1,3-4.1,6.1-6,9.3
				c0.1,0.1,0.3,0.2,0.4,0.2c0.2,0,0.2,0.1,0,0.1c-0.4,0.5-0.7,1-1,1.5c-0.5,0.7-0.8,1.5-1,2.4c0.4-0.1,0.8-0.2,1.1-0.4
				c0.2-0.2,0.5-0.3,0.8-0.4l-0.1,0.6c0.1,0.1,0.3,0,0.5-0.1c0.2-0.2,0.5-0.4,0.7-0.6s0.4-0.4,0.6-0.6c0.1-0.2,0.3-0.3,0.5-0.3
				c0.3,0,0.3,0.1,0.1,0.4c-0.2,0.2-0.3,0.4-0.4,0.6L162.4,157.1L162.4,157.1z M163.9,136.3c-0.3-0.1-0.4-0.2-0.4-0.4
				c0-0.1,0-0.1,0.1-0.2c0-0.1,0.1-0.1,0.1-0.1c0.2-0.1,0.3-0.3,0.4-0.5c0.2,0.1,0.2,0.2,0.1,0.5S164,136.2,163.9,136.3z
				 M198.3,154.8c0.1-0.2,0.2-0.3,0.3-0.4s0.3-0.2,0.4-0.3c0.4-0.1,0.6-0.3,0.6-0.5c-0.4,0-0.8,0.2-1.2,0.4
				C198,154.2,197.9,154.4,198.3,154.8L198.3,154.8z M200.1,153.3c0.3,0,0.5-0.1,0.5-0.1c0-0.1,0-0.2,0-0.3
				C200.4,152.8,200.2,152.9,200.1,153.3L200.1,153.3z M203.1,151.1c-0.3-0.2-0.4-0.4-0.1-0.7c0.3-0.3,0.7-0.5,1.1-0.6
				c-0.1,0.2-0.1,0.5-0.1,0.7c-0.1,0.3-0.3,0.3-0.5,0.2S203.1,150.8,203.1,151.1L203.1,151.1L203.1,151.1z M206.6,148.3
				c-0.1,0.3-0.3,0.5-0.4,0.5c-0.2,0.1-0.3,0.2-0.4,0.4c-0.1,0-0.2,0-0.3,0s-0.2-0.1-0.2-0.1c-0.1,0.1-0.3,0.2-0.4,0.3
				c-0.2,0.1-0.4,0.2-0.6,0.2c0-0.3,0.1-0.4,0.2-0.5s0.4-0.2,0.7-0.3c0.2-0.1,0.4-0.2,0.6-0.4c0.1-0.1,0.2-0.1,0.4-0.1
				C206.3,148.3,206.4,148.3,206.6,148.3L206.6,148.3z M207,147.5c0.1-0.3,0.3-0.6,0.6-0.7c0.3-0.2,0.6-0.4,0.9-0.6
				c0.4-0.2,0.7-0.4,0.9-0.7c0.3-0.3,0.5-0.6,0.6-1c0.1,0.3,0.1,0.5,0,0.8c-0.1,0.5-0.4,0.9-0.8,1.3c-0.3,0.4-0.7,0.7-1.1,1
				c-0.4,0.3-0.7,0.5-1,0.6c-0.2,0.1-0.4,0.2-0.6,0.2c0-0.1-0.1-0.1-0.1-0.2c0-0.1,0-0.1,0.1-0.2s0.1-0.1,0.2-0.1s0.1,0,0.2,0
				s0.1,0,0,0S206.8,147.7,207,147.5L207,147.5L207,147.5z"/>
			<path d="M268.8,146.1c0.4-0.1,0.7-0.2,1-0.4c0.3-0.2,0.6-0.3,0.7-0.1s0.1,0.5-0.2,1l-0.6,1.2c-0.4,0.5-0.8,1-1.1,1.4
				s-0.7,0.9-1.1,1.4c-0.3,0.3-0.6,0.8-1.1,1.3s-0.8,1-1.1,1.3c-0.4,0.4-0.7,0.8-1.1,1.2l-1.1,1.1c-1.9,1.9-3.9,3.6-6,5.4
				s-4.2,3.3-6.5,4.9c-1.6,1-3.2,1.8-4.9,2.5c-1.7,0.7-3.5,1.1-5.3,1.1c-1.1,0-2.2-0.2-3.2-0.6c-1.1-0.5-2.1-1.3-2.7-2.3
				c-0.8-1.1-1.3-2.2-1.6-3.5c-0.3-1.2-0.4-2.5-0.4-3.7c0-1.6,0.1-3.2,0.4-4.8c0.3-1.6,0.5-3.2,0.6-4.8c-1.6,0.8-3.1,1.9-4.3,3.2
				c-1.3,1.3-2.6,2.6-4,3.7c-0.8,0.6-1.6,1.2-2.4,1.9s-1.6,1.4-2.4,2.1c-0.5,0.5-1,1.1-1.4,1.7c-0.5,0.2-0.9,0.6-1.3,0.9
				c-0.5,0.4-0.9,0.7-1.1,1c-0.3,0.3-0.6,0.6-0.7,1c-0.1,0.4-0.4,0.7-0.8,0.9c-0.2,0.1-0.4,0.1-0.5,0c-0.2,0-0.4,0-0.6,0.1
				c-0.2,0.1-0.5,0.1-0.8,0.1s-0.5-0.1-0.7-0.3c-0.3-0.3-0.8-0.3-1.3,0.1c0.1-0.1,0.1-0.3,0-0.5c-0.1,0.4-0.4,0.6-0.6,0.5
				c-0.3,0-0.6-0.2-0.9-0.4c-0.3-0.2-0.6-0.5-0.9-0.8l-0.6-0.5c-0.2-0.2-0.4-0.5-0.6-0.8c-0.1-0.3-0.2-0.6-0.2-0.9
				c0-0.6,0.1-1.2,0.2-1.8c0.5-1.9,1-3.7,1.5-5.5s1-3.6,1.4-5.4c-0.8,0.4-1.6,0.9-2.4,1.4c-0.7,0.6-1.6,1-2.5,1.1
				c0-0.1-0.1-0.2-0.1-0.4c-0.1-0.2-0.1-0.4-0.1-0.5c0-0.1,0-0.3,0.1-0.4c0.1-0.1,0.2-0.2,0.3-0.3c0.1-0.1,0.2-0.2,0.3-0.3
				c0.1-0.1,0.1-0.3,0.1-0.4c0.1-0.2,0.2-0.4,0.4-0.6c0.2-0.2,0.4-0.3,0.6-0.4c0.5-0.2,0.9-0.6,1.2-1.1c0.4-0.9,0.9-1.6,1.7-2.2
				c0.8-0.6,1.4-1.5,1.8-2.4c-0.2,0-0.4,0-0.6,0.1c-0.1,0-0.1,0.1-0.2,0.1s-0.1,0-0.2-0.1c-0.3-0.3-0.3-0.6,0-0.9
				c0,0.2,0.1,0.2,0.3,0.1c0.2-0.1,0.2-0.3-0.1-0.6c0.3,0.2,0.5,0.1,0.7-0.4c0.1-0.3,0.3-0.6,0.6-0.8c-0.1,0.1-0.1,0.2-0.1,0.3
				s0,0.2,0.1,0.3s0.1,0.2,0.2,0.3c0,0.1,0,0.2,0,0.3c0.2-0.3,0.4-0.6,0.8-0.9c0.3-0.2,0.5-0.6,0.6-0.9c-0.1-0.1-0.3,0-0.5,0.3
				c-0.2,0.3-0.4,0.6-0.6,0.9c-0.1-0.1-0.2-0.3-0.2-0.4c0-0.2-0.1-0.3-0.2-0.4c0.6-0.3,1.1-0.8,1.5-1.3c0.4-0.5,0.8-1.1,1.1-1.7
				c0-0.1,0-0.2,0-0.3c0-0.1-0.1-0.3-0.1-0.4c0-0.1,0-0.2,0.1-0.4c0.1-0.1,0.2-0.1,0.5,0c0.3,0.3,0.6,0.5,0.7,0.5s0.1-0.1,0.2-0.2
				c0.2-0.4,0.3-0.8,0.4-1.2c0-0.1,0.1-0.2,0.1-0.3c0.1-0.1,0.1-0.2,0.2-0.2c0.1-0.1,0.2-0.1,0.3-0.1c0.1,0,0.2,0,0.3,0
				c0,0.1,0,0.2,0,0.2c0,0,0,0,0,0.1c0,0,0,0.1,0,0.1c0.1,0,0.1,0,0.2,0c0.1,0,0.1-0.1,0.1-0.1c0.1-0.1,0.2-0.1,0.5,0
				c0.6,0.6,1.4,1,2.2,1.1c1,0.2,2,0.6,2.7,1.4c0.3,0.1,0.4,0.3,0.4,0.4v0.7c0.1,0.6,0,1.1-0.2,1.6c-0.3,0.4-0.6,0.9-0.9,1.3
				l-1.2,2.3c-0.4,0.7-0.7,1.5-1,2.3c-0.3,1-0.7,2-1.1,3s-0.8,2-1.1,3c-0.3,0.7-0.7,1.5-1.1,2.2c-0.4,0.7-0.6,1.4-0.6,2.2
				c0.3-0.1,0.6-0.2,0.8-0.2c0.4-0.1,0.7-0.2,1-0.5c0.2-0.3,0.4-0.5,0.6-0.8c0.2-0.2,0.4-0.4,0.7-0.6c0.4-0.4,1-0.8,1.5-1
				c0.5-0.2,0.7-0.7,0.7-1.5c0.2,0,0.4,0,0.6-0.1c0.1,0,0.3,0,0.4-0.1c0.2-0.3,0.2-0.4,0.1-0.5s0-0.2,0.4-0.3
				c0.1-0.1,0.3-0.2,0.4-0.2c0.1,0,0.3-0.1,0.4-0.1c0.3-0.2,0.4-0.3,0.4-0.4s0.1-0.1,0.4-0.2l-0.1-0.1l-0.2-0.2
				c0.3-0.3,0.7-0.5,1.1-0.6c0.2-0.1,0.4-0.2,0.6-0.4c0.2-0.2,0.3-0.4,0.4-0.6c-0.6,0-1.1,0.2-1.5,0.6c-0.3,0.4-0.7,0.7-1.2,0.9
				c0.2-0.4,0.6-0.8,1-1c0.4-0.2,0.8-0.4,1.2-0.6c0.4-0.1,0.8-0.3,1.1-0.5c0.4-0.2,0.7-0.5,0.9-0.9c0,0.1,0.1,0.1,0.4,0.1
				s0.4-0.2,0.2-0.6c0.1,0.1,0.2,0.2,0.2,0.4c0.1,0.1,0.1,0.2,0.2,0.3c0.3-0.1,0.3-0.3,0.1-0.4c-0.1-0.1-0.2-0.1-0.3-0.2
				c-0.1-0.1-0.1-0.2-0.1-0.4c0.5-0.1,1-0.3,1.3-0.6s0.7-0.5,0.9-0.4c0.1-0.3,0.1-0.4,0-0.3c-0.1,0.1-0.3,0.1-0.4,0.1
				c0.3-0.5,0.6-0.6,1-0.4c0.2,0.1,0.4,0.1,0.6,0.1c0.2-0.1,0.4-0.2,0.5-0.3l-0.3-0.5h0.4c-0.1-0.1-0.2-0.2-0.3-0.2
				s-0.2-0.1-0.4-0.1c0.4-0.1,0.7-0.2,1.1-0.2c0.2,0,0.4,0,0.6,0.1s0.4,0.1,0.5,0.3c0.2,0.1,0.3,0.3,0.3,0.5c0.4,0,0.7,0,1.1-0.1
				c0.4-0.1,0.7,0,1.1,0.1l0.2,0.4c0.1,0.2,0.2,0.3,0.2,0.4s0.4,0.1,0.5-0.1s0.3-0.1,0.4,0.3s0.3,1,0.6,1.1c0.5,0.5,0.8,0.9,0.6,1.3
				c-0.1,0.5-0.2,1-0.1,1.5c0.1,0.7,0.1,1.4,0.1,1.9c0,0.7-0.1,1.3-0.2,1.9c-0.2,0.7-0.4,1.4-0.6,2c-0.2,0.6-0.4,1.3-0.4,2
				c0,0.6-0.1,1.2-0.2,1.7c-0.1,0.7-0.2,1.3-0.3,2c-0.1,0.7-0.1,1.3,0,2c0.1,0.6,0.3,1.2,0.6,1.6c0.6,0.2,1.2,0.2,1.8,0.1
				c0.6-0.1,1.1-0.2,1.6-0.4s1.1-0.4,1.6-0.6c0.6-0.2,1.1-0.2,1.7-0.2c0.7-0.4,1.6-0.9,2.7-1.4c0.9-0.4,1.7-1,2.2-1.8
				c0.4-0.6,0.9-1,1.6-1.2s1.2-0.7,1.6-1.2c0.1-0.1,0.2-0.3,0.3-0.4c0.1-0.1,0.3-0.1,0.5-0.1c0.3,0,0.5-0.2,0.5-0.7
				c0.2,0.1,0.4,0.1,0.5,0c0.2,0,0.3-0.1,0.5-0.2c0.1-0.1,0.3-0.3,0.4-0.4c0.1-0.2,0.1-0.4,0-0.6c0.1-0.1,0.2,0,0.2,0.1
				c0,0.1,0,0.1,0,0.1c0,0.1,0,0.1,0.1,0.1c0.1-0.1,0.1-0.1,0.1-0.2c0-0.1,0-0.2,0-0.3c0-0.3,0.1-0.5,0.2-0.7
				c0.2,0.1,0.2,0.2,0.1,0.3c-0.1,0.1-0.1,0.2-0.1,0.4c0.2,0,0.3-0.1,0.3-0.2c0-0.2,0-0.3,0.1-0.4c0.2,0.1,0.4,0.1,0.6-0.1
				c0.2-0.2,0.5-0.4,0.7-0.7c0.2-0.3,0.5-0.5,0.6-0.8s0.4-0.4,0.5-0.4s0.3,0,0.8-0.2s0.8-0.4,0.8-0.6s-0.2-0.2-0.2,0.1
				s-0.2,0.3-0.4,0c-0.1,0,0-0.1,0-0.1c0.1-0.1,0.2-0.2,0.4-0.2l0.5-0.1c0.1,0,0.2,0,0.2,0.1s0.1-0.1,0.1-0.1s0.1-0.1,0.2-0.2
				c0.1-0.4,0.3-0.8,0.5-1.1c0.2-0.4,0.6-0.7,0.9-0.9c-0.1,0.1-0.2,0.3-0.2,0.4c0,0.1-0.1,0.3-0.1,0.4l0.5-0.3
				c0.1-0.1,0.2,0,0.4,0.1c-0.1-0.1,0-0.4,0.4-0.7c0.3-0.2,0.5-0.4,0.9-0.6l0.7-0.3l0.6-0.6l1.1-1.1c0.1-0.2,0.4-0.4,0.6-0.4
				c0.2-0.1,0.5-0.1,0.7-0.1c0.1,0.2,0.1,0.3-0.1,0.4S268.8,146.1,268.8,146.1L268.8,146.1z M210.4,144.8c-0.1,0-0.1,0-0.1,0.1
				c-0.1-0.3-0.1-0.6-0.2-0.9c-0.1-0.2,0-0.4,0.2-0.6c0.3,0.2,0.4,0.4,0.2,0.6c-0.1,0.1-0.1,0.2-0.2,0.4
				C210.4,144.5,210.4,144.6,210.4,144.8z M211.7,142.7c-0.2,0.2-0.3,0.4-0.2,0.4c0,0,0.1,0.1,0.1,0.1c0,0,0.1,0,0.1,0
				c0.1,0,0.2-0.1,0.3-0.2c0.1-0.1,0.1-0.2-0.1-0.4c-0.1,0.2-0.1,0.2-0.1,0.1S211.8,142.7,211.7,142.7L211.7,142.7z M212.9,140.1
				c-0.2-0.1-0.2-0.3-0.1-0.4c0.1-0.1,0.1-0.2,0.2-0.2c0.1,0,0.2-0.1,0.3-0.1c0,0.1,0,0.1,0,0.2c0,0.1-0.1,0.1-0.1,0.2
				C213,139.8,213,140,212.9,140.1L212.9,140.1z M217,134.8c0.3,0.2,0.3,0.4,0.1,0.6c-0.1,0.2-0.4,0.3-0.6,0.3
				c-0.1-0.4-0.1-0.6,0.1-0.6c0.1,0,0.2,0,0.3-0.1C216.9,135,217,134.9,217,134.8L217,134.8L217,134.8z M217.7,156.7
				c-0.2-0.1-0.2-0.2,0-0.3s0.3-0.2,0.3-0.4c0.3,0.2,0.4,0.3,0.1,0.4S217.7,156.6,217.7,156.7L217.7,156.7z M218.7,155.5
				c0-0.5,0.2-0.8,0.5-0.8c0.1,0.4,0,0.6-0.1,0.5S218.8,155.2,218.7,155.5L218.7,155.5L218.7,155.5z M219.3,154.7
				c-0.1-0.3-0.1-0.4,0-0.4s0.2-0.1,0.2-0.2s0.2,0.1,0.1,0.3c0,0.1,0,0.1,0,0.1c0,0-0.1,0.1-0.1,0.1s-0.1,0.1-0.1,0.1
				C219.3,154.7,219.3,154.7,219.3,154.7L219.3,154.7z M219.9,154.5c-0.2-0.2-0.1-0.4,0.1-0.5c0.2-0.1,0.4-0.2,0.6-0.2
				c0,0.1,0,0.1-0.1,0.2c-0.1,0.1-0.1,0.1-0.2,0.1C220.2,154.1,220,154.3,219.9,154.5L219.9,154.5L219.9,154.5z M225.7,149.5
				c0.1-0.2,0.2-0.3,0.4-0.4c0.1-0.1,0.3-0.1,0.5-0.1c-0.1,0.1-0.2,0.2-0.4,0.4C226.1,149.4,225.9,149.5,225.7,149.5L225.7,149.5z
				 M228.2,146.8c-0.2-0.1-0.1-0.2,0.1-0.4c0.2-0.1,0.4-0.1,0.5-0.2c0.1,0.2,0.1,0.3-0.2,0.4S228.2,146.7,228.2,146.8L228.2,146.8
				L228.2,146.8z M260.1,152c-0.3-0.2-0.3-0.4,0-0.5s0.5-0.3,0.5-0.4s0.1,0.1-0.1,0.4C260.3,151.6,260.1,151.8,260.1,152z
				 M266.2,146.7c0.1,0.1,0,0.3-0.1,0.6s-0.3,0.4-0.4,0.4c0.1-0.1,0.1-0.2,0.1-0.2s0-0.2,0-0.3s0-0.2,0.1-0.3
				C266.1,146.7,266.1,146.7,266.2,146.7L266.2,146.7L266.2,146.7z M268,145c0.1,0.1,0.1,0.3-0.2,0.6s-0.4,0.4-0.5,0.4
				c0-0.2,0.1-0.4,0.2-0.6C267.7,145.2,267.9,145,268,145z M268.5,145.3c-0.1,0-0.1-0.1,0-0.3c0,0,0-0.1,0.1-0.1
				c0,0,0.1-0.1,0.1-0.1c0,0,0.1,0,0.1,0c0,0,0.1,0,0.1,0c0.1,0.2,0,0.3-0.1,0.3S268.5,145.2,268.5,145.3L268.5,145.3L268.5,145.3z
				 M269.9,144c0,0.3-0.1,0.5-0.4,0.5C269.7,144.2,269.8,144.1,269.9,144L269.9,144z"/>
			<path d="M345.5,166.7c0.1-0.3,0.5-0.6,1.1-0.7c0.5-0.1,1-0.1,1.4,0c-0.5-0.1-0.9,0.1-0.9,0.6c0,0.2-0.1,0.4-0.2,0.5
				c-0.1,0.1-0.3,0.3-0.4,0.3c-0.1,0.1-0.3,0.1-0.4,0.1c-0.1,0-0.3-0.1-0.4-0.2c-0.2-0.3-0.4-0.1-0.7,0.4c0.1,0.1,0.2,0.1,0.4,0.1
				s0.3-0.1,0.4-0.1c0.4-0.1,0.8-0.1,1.2,0c-0.3,0.2-0.6,0.4-1,0.5c-0.5,0.1-1,0.1-1.5-0.1c-0.1,0.1-0.1,0.1-0.1,0.2
				c-0.1,0.1-0.2,0.2-0.4,0.3c-0.1,0.1,0,0.1,0.1,0.1s0.2,0.1,0.2,0.2s-0.1,0.2-0.2,0.3s-0.3,0.2-0.4,0.3s-0.2-0.2-0.2-0.5
				c-0.4,0.1-0.5,0.2-0.2,0.4s0.2,0.5,0,0.7c-0.1,0-0.2-0.1-0.3-0.2c-0.1-0.1-0.1-0.2-0.1-0.3c0-0.2,0-0.4-0.1-0.6
				c-0.3,0-0.7,0.1-1,0.2c-0.3,0.1-0.5,0.2-0.7,0.4c0.3,0.1,0.6,0.1,0.9,0.1c0.2,0,0.2,0,0.2,0.1s-0.2,0.1-0.6,0.1v0.7
				c0.2,0.2,0.4,0.3,0.5,0.2s0.3-0.1,0.5-0.2c0.2-0.1,0.4-0.2,0.5-0.2c0.1,0,0.2,0,0.4,0.1s0.2,0.1,0.3,0.2
				c-0.3,0.3-0.7,0.5-1.1,0.6c-0.5,0.1-1.1,0.2-1.6,0.3l-1.7,0.2c-0.6,0.1-1,0.1-1.4,0.2c-0.3,0.1-0.7,0.2-1,0.3
				c-0.1,0.1-0.3,0.1-0.5,0.1s-0.3,0-0.5-0.1c0.1,0.1,0.3,0.2,0.4,0.3c0.2,0.1,0.3,0.1,0.5,0.1c0.4,0,0.8-0.1,1.1-0.2
				c0.4-0.1,0.8-0.2,1.2-0.2c0.4-0.1,0.8,0,1.2,0.1c-1.5,0.5-3,0.8-4.5,0.9c-1.6,0.1-3.3,0.2-4.9,0.4c0-0.1,0.1-0.2,0.2-0.3
				c0.1-0.1,0.2-0.1,0.4-0.1c-0.1-0.2-0.2-0.3-0.5-0.2c-0.2,0.1-0.5,0.1-0.7,0c-0.2,0.3-0.1,0.4,0.1,0.3s0.4,0,0.3,0.4
				c-0.7-0.2-1.5-0.2-2.2,0.1c-0.7,0.3-1.5,0.4-2.3,0.4c-2-0.1-4.2-0.1-6.4-0.1c-2.2,0-4.3-0.2-6.5-0.4c-0.8-0.2-1.6-0.3-2.5-0.3
				c-0.9,0-1.6,0-2.4-0.1c-0.2-0.1-0.4-0.2-0.5-0.3c-0.2-0.2-0.4-0.3-0.6-0.3c-0.2,0-0.4,0-0.6,0.1c-0.2,0-0.4,0-0.6-0.1
				c-1-0.1-2-0.3-3-0.6c-1-0.3-2-0.6-3.1-0.8c-2.2-0.6-4.4-1.5-6.5-2.6c-1.9-1-3.7-2.1-5.4-3.4c-0.9-0.7-1.8-1.4-2.7-2.1
				c-0.8-0.7-1.6-1.5-2.4-2.3l-0.3-0.4c-0.9,0.4-1.7,1-2.4,1.7c-0.9,0.8-1.7,1.5-2.4,2.2c-0.1,0.3-0.3,0.6-0.4,0.9
				c-0.1,0.3-0.2,0.5-0.4,0.6l-0.5,0.1c-0.3,0-0.4,0-0.3-0.1c-0.4,0.1-0.6,0.3-0.6,0.8c0,0.4,0,0.8-0.2,1.1h-0.4
				c-0.2,0.2-0.4,0.4-0.5,0.7c-0.1,0.3-0.3,0.3-0.6,0c0,0.1-0.2,0.2-0.6,0.2c-0.4,0-0.8-0.1-1.2-0.2c0,0-0.1-0.1-0.1-0.1
				s0-0.1,0-0.2c0-0.1,0-0.2-0.1-0.3c-0.2,0-0.3-0.1-0.5-0.1c-0.1,0-0.2-0.1-0.4-0.3l-0.6-0.5c-0.1-0.1-0.2-0.1-0.1-0.2
				c0.1-0.1,0.1-0.2,0.1-0.2c-0.1-0.1-0.2-0.1-0.3-0.1c-0.1,0-0.1,0,0,0.1c-0.1-0.2-0.2-0.4-0.1-0.6c0-0.2,0-0.4,0-0.6
				c-0.1-0.2-0.2-0.3-0.4-0.4c-0.2-0.1-0.3-0.3-0.4-0.5c0-0.2-0.1-0.4-0.2-0.5c-0.2-0.3-0.3-0.6-0.4-0.8c-0.2-0.4-0.5-0.9-0.8-1.5
				c-0.3-0.6-0.5-1.1-0.6-1.7c0.3,0,0.5,0.1,0.7,0.3c0.2,0.1,0.3,0.3,0.5,0.4s0.2,0,0.2-0.1s0.1-0.1,0.2-0.1c0.1-0.3,0-0.4-0.1-0.4
				s-0.2-0.1-0.2-0.4c0.2,0,0.4-0.1,0.5-0.2c0.1-0.1,0.3-0.3,0.3-0.5c0.1-0.3,0.2-0.8,0.4-1.3c0.1-0.1,0.2-0.1,0.4,0s0.1,0,0.1-0.3
				c-0.2-0.2-0.3-0.2-0.3,0c-0.1-0.4,0-0.9,0.1-1.3c0.2-0.4,0.3-0.9,0.3-1.3c0.1,0,0.1,0.1,0,0.2c0,0.1-0.1,0.1-0.1,0.2
				c0,0.1,0,0.2,0.1,0.2c0.2-0.3,0.2-0.6,0.2-0.9c0-0.4,0-0.8,0.2-1.1c0.3-0.5,0.6-1,1-1.5c-0.3,0-0.5,0.1-0.5,0.3s-0.1,0.3-0.4,0.3
				c-0.1-0.3,0-0.6,0.1-0.9c0.1-0.2,0.2-0.4,0.4-0.6c0.1,0,0.1,0.1,0,0.4s-0.1,0.4,0,0.4c0.1-0.2,0.3-0.5,0.5-0.7
				c0.2-0.2,0.3-0.5,0.2-0.8c-0.2,0.1-0.3,0-0.3-0.1c0-0.2,0-0.4,0.1-0.6c0.1-0.3,0.1-0.6,0.2-0.9c0-0.3,0.1-0.5,0.1-0.8l-1.1,0.9
				c-0.5,0.4-1,0.7-1.5,1s-1,0.6-1.4,0.8l-0.8,0.4c-0.5,0.2-1.1,0.3-1.7,0.3l-1.7-0.3c-0.2,0-0.2-0.1-0.1-0.3
				c0.2-0.2,0.3-0.4,0.5-0.6l0.8-0.8l0.6-0.6l1.6-1.6l2-2c1.1-1.1,2.2-2.2,3.3-3.2c1.2-1.1,2.2-2.2,3.2-3.5c-0.4,0.1-0.6,0.1-0.6,0
				s0-0.2,0.1-0.4l0.5-0.7c0.1-0.2,0.2-0.5,0.2-0.8c-0.2,0.2-0.4,0.4-0.6,0.6c-0.1,0.1-0.2,0.2-0.2,0.3c0,0.1-0.1,0.3-0.1,0.4
				c-0.5,0.3-1,0.7-1.4,1.1l-1.2,1.3c0.1-0.6,0.5-1.1,0.9-1.5c0.6-0.7,1.1-1.3,1.4-1.7s0.6-0.8,1.1-1.2c0.5-0.5,0.8-1.1,0.8-1.8
				c0.2,0,0.4-0.1,0.6-0.2s0.3-0.3,0.4-0.5c0.2-0.4,0.4-0.9,0.6-1.4c-0.4,0.3-0.7,0.6-1,1c-0.1,0.2-0.1,0.3-0.1,0.5
				c0,0.2-0.2,0.2-0.4,0.1c0-0.2,0.1-0.4,0.3-0.6c0.2-0.2,0.3-0.4,0.3-0.6c0.2-0.5,0.4-0.8,0.5-1.1c0.1-0.3,0.3-0.6,0.5-0.8
				c-0.1,0.8-0.2,1.1-0.1,0.8s0.4-0.5,1-0.8c0-0.1,0-0.3,0-0.4c0-0.1,0-0.1,0-0.2c0-0.1,0-0.1,0.1-0.2c0.1-0.1,0.2-0.3,0.3-0.4
				c0.1-0.1,0.2-0.2,0.3-0.4c0.2-0.3,0.3-0.7,0.4-1c0-0.1,0-0.1,0-0.2c0-0.1,0.1-0.1,0.1-0.2c0-0.1,0.1-0.1,0.2-0.1
				c0.1,0,0.1,0,0.2,0c-0.1,0.2-0.2,0.5-0.2,0.8c0,0.1,0,0.1,0,0.2c0,0.1-0.1,0.1-0.1,0.1c0.5,0,0.7-0.1,0.7-0.3
				c0-0.2,0.1-0.5,0.1-0.7c0.6-1.2,1.1-2.2,1.4-2.9c0.4-0.7,0.7-1.3,0.9-1.9c0.2-0.3,0.3-0.7,0.4-1c-0.3-0.1-0.3-0.2,0-0.3
				c0.2-0.1,0.4-0.2,0.5-0.3c-0.1-0.1-0.1-0.2-0.1-0.3c0-0.1,0-0.2,0-0.3c0-0.1,0.1-0.2,0.1-0.3c0.1-0.1,0.1-0.2,0.2-0.2
				c0.4-0.2,0.6-0.6,0.8-1c-0.1-0.1-0.1-0.2-0.1-0.2s0-0.2,0-0.3c0-0.1,0-0.2,0.1-0.3s0.1-0.2,0.2-0.2c0.4-0.3,0.5-0.5,0.5-0.7
				s0.2-0.5,0.1-0.6s0.1-0.2,0.3-0.4s0.2-0.2,0.2-0.3c0-0.2,0.1-0.3,0.2-0.5c0.3-0.6,0.6-1.2,1-1.7c0.4-0.5,0.7-1.1,0.9-1.7
				c0.2-0.7,0.4-1.3,0.6-1.9c0.2-0.7,0.7-1.2,1.3-1.5c0-0.5,0-0.8,0.1-0.8c0.2-0.1,0.4-0.2,0.6-0.4c0-0.9,0.3-1.8,0.8-2.5
				c0.6-0.9,1.2-1.6,1.6-2.2c-0.4,0.3-0.7,0.6-0.9,1c-0.3,0.4-0.6,0.9-0.8,1.4c-0.2,0.5-0.5,0.9-0.7,1.3c-0.1,0.3-0.4,0.6-0.7,0.7
				c0.1-0.3,0.2-0.6,0.2-0.8c0-0.2,0-0.3,0.1-0.5s0.2-0.3,0.4-0.3l-0.4-0.2c0.3-0.5,0.6-1,1.1-1.3c0.5-0.4,0.9-0.9,1.2-1.4
				c-0.2,0.1-0.3,0.2-0.3,0.3s-0.2,0.1-0.5,0c0.2-0.5,0.5-1,0.9-1.4c0.4-0.5,0.8-0.9,1.3-1.3c0-0.4,0.1-0.7,0.4-1
				c0.3-0.3,0.4-0.8,0.4-1.2c0.1-0.1,0.3-0.2,0.4-0.3c0.1-0.1,0.2-0.3,0.2-0.4c0-0.3,0.2-0.4,0.5-0.3c-0.1-0.3-0.1-0.6,0-0.9
				c0.1-0.2,0.2-0.4,0.4-0.5l0.5-0.4c0.1-0.1,0.1-0.2,0.2-0.3c0-0.1,0.1-0.2,0.1-0.3c0-0.1,0-0.2-0.1-0.3c0-0.1,0-0.2,0-0.3
				c0-0.1,0.1-0.2,0.1-0.3c0.1-0.1,0.1-0.2,0.2-0.2s0.2,0,0.3-0.1c0.3-0.4,0.6-0.7,0.9-1.1c0.2-0.3,0.5-0.7,0.8-1.1
				c0.4-0.8,0.8-1.4,1.4-2c0.7-0.6,1.1-1.5,1.2-2.4c0.3-0.1,0.4,0,0.4,0.2c0,0.1-0.1,0.3-0.1,0.3c0.3,0.1,0.4,0.1,0.5-0.1
				s0.2-0.4,0.6-0.7c0-0.1,0-0.2,0-0.3c0-0.1-0.1-0.2-0.1-0.3c-0.1-0.2,0-0.3,0.3-0.3c0-0.1-0.1-0.1-0.2-0.2s-0.1-0.1-0.2-0.1
				c-0.1,0-0.2,0-0.2,0.1s-0.1,0.1-0.2,0.2c-0.1,0.1-0.2,0.3-0.3,0.5c-0.1,0.2-0.1,0.4,0,0.5c-0.1,0-0.1-0.1-0.2-0.2
				c0-0.1-0.1-0.2-0.1-0.2c0-0.1,0-0.2,0-0.3s0-0.2,0.1-0.2c0.2-0.3,0.4-0.7,0.5-1c0.1,0,0.1,0.1,0,0.3c0,0.2-0.1,0.4-0.2,0.5
				c0.3-0.2,0.6-0.6,0.7-0.9c0.1-0.2,0.2-0.4,0.4-0.5c0.2-0.1,0.4-0.2,0.6-0.2c0,0.1,0,0.2,0,0.3c0,0.1,0.1,0.2,0.2,0.2
				c0.1,0.1,0.1,0.2-0.2,0.3c0.1,0.1,0.3,0.3,0.5,0.3c0.2,0.1,0.4,0.1,0.5,0.1c0.1,0.1,0.1,0.1,0,0.2s-0.2,0.2-0.2,0.4
				c0.2-0.1,0.5-0.1,0.7-0.2c0.2,0,0.3,0,0.5,0.1s0.2,0.2,0.2,0.4c-0.2,0.1-0.2,0.2,0,0.1c0.1,0,0.2-0.1,0.2-0.1
				c0.1-0.1,0.1-0.1,0.2-0.2c0.3,0.3,0.5,0.6,0.5,1c0.1,0.5,0.4,0.6,0.9,0.5c-0.1,0.6-0.1,0.9,0.1,0.8c0.3,0,0.5,0,0.7,0.2
				c0.3,0.7,0.4,1.4,0.4,2.1c0,0.8-0.3,1.5-0.7,2.1l-0.4,0.2c-0.1,0.1-0.2,0.2-0.3,0.4c-0.2,0.5-0.3,0.9-0.4,1.4
				c0,0.6-0.1,1.1-0.2,1.6c-0.7,1.5-1.4,3.1-2.1,4.7c-0.7,1.5-1.6,2.9-2.5,4.3c-0.1-0.1-0.2-0.2-0.1-0.3s-0.1-0.1-0.4,0.1
				c0.2-0.3,0.5-0.7,0.9-1.1s0.4-0.7,0-0.7c0.1-0.3,0.1-0.3,0.2-0.2s0.2,0,0.4-0.2c-0.3-0.4-0.2-0.7,0-1c0.3-0.3,0.6-0.6,0.7-1
				c0-0.1,0-0.1,0.1-0.2c0-0.1,0-0.1,0-0.2c0,0,0-0.1,0-0.1c0,0,0-0.1,0.1-0.1c0-0.3,0.1-0.6,0.2-0.8c0.1-0.3,0.3-0.6,0.4-0.8
				c-0.3,0.3-0.6,0.6-0.8,1c-0.3,0.5-0.5,1-0.7,1.4c-0.1,0.3-0.3,0.7-0.5,1c-0.1,0.2-0.2,0.1-0.3-0.3c-0.1,0-0.2,0.1-0.2,0.1
				s-0.1,0.1-0.2,0.2c-0.1,0.2-0.2,0.3-0.3,0.5c0.3,0.1,0.4,0.2,0.4,0.1s0-0.1,0.1,0c-0.1,0.2-0.2,0.4-0.4,0.6
				c-0.2,0.2-0.2,0.3-0.1,0.3c-0.3-0.1-0.6,0-0.9,0.4c-0.2,0.3-0.3,0.6-0.3,1l0.3-0.3c0.1-0.1,0.1-0.3,0.1-0.4
				c0.1,0.1,0.1,0.2,0.1,0.3c0,0.1,0,0.2-0.1,0.3c-0.1,0.2-0.3,0.4-0.4,0.6c-0.4,0-0.6,0.1-0.7,0.2c-0.2,0.4-0.5,0.8-0.8,1.1
				c0.1,0.1,0.2,0,0.4-0.2c0,0.3,0,0.6-0.2,0.8c-0.2,0.2-0.4,0.4-0.7,0.4c-0.3,0.1-0.5,0.2-0.8,0.4s-0.4,0.4-0.5,0.6
				c0.3-0.1,0.4,0,0.2,0.5c-0.2,0.6-0.5,1.1-0.9,1.5c-0.1,0.2-0.2,0.4-0.3,0.7c-0.1,0.2-0.2,0.5-0.2,0.8c0.5-0.4,1-1,1.3-1.6
				c0.4-0.6,0.8-1.2,1.3-1.7c0.3,0.1,0.3,0.2,0.2,0.3c-0.1,0.1-0.1,0.1,0.1,0.2c0.3-0.5,0.5-1,0.6-1.6c0-0.3,0.2-0.5,0.4-0.7
				c0.2-0.2,0.4-0.3,0.6-0.4c0-0.4,0.1-0.7,0.3-1c0.2-0.3,0.5-0.6,0.8-0.7c0,0.1,0.1,0.2,0.4,0.2c-0.1,0.1-0.3,0.2-0.4,0.4
				c-0.1,0.2-0.2,0.3-0.2,0.5c-0.1,0.4-0.3,0.6-0.6,0.4c0,0.2,0,0.3,0,0.5c0,0.2-0.1,0.3-0.2,0.4c-0.2,0.2-0.4,0.5-0.5,0.8
				c0.2-0.1,0.4-0.3,0.5-0.5c0.1-0.2,0.2-0.3,0.4-0.5c0,0.2-0.1,0.4-0.2,0.6c-0.1,0.4-0.3,0.5-0.4,0.3c-0.2,0.4-0.5,1-0.9,1.7
				s-0.9,1.5-1.5,2.3s-1.1,1.6-1.6,2.4c-0.4,0.6-0.9,1.2-1.4,1.7c-1.5,1.9-3,3.9-4.4,6c-1.4,2.1-2.6,4.4-3.8,6.7
				c-0.2,0.8-0.5,1.5-0.9,2.2c-0.4,0.6-0.7,1.3-0.9,1.9c0,0.1,0,0.1,0,0.2s0,0.1,0.1,0.1s0.1,0.1,0.1,0.1s0,0.1,0,0.2
				c0,0.1-0.1,0.2-0.1,0.2s-0.1,0.1-0.2,0.1c-0.1,0-0.2,0.1-0.4,0.1c-0.2,0.3-0.3,0.6-0.3,0.9c0,0.4-0.2,0.7-0.5,0.9
				c-0.4,0.8-0.9,1.9-1.5,3.3s-1.2,2.9-1.7,4.4s-1,3.1-1.4,4.5c-0.4,1.2-0.5,2.4-0.6,3.7c0,0.3,0.1,0.5,0.2,0.4
				c0.3-0.1,0.6-0.1,0.9-0.1c0,0.2-0.1,0.4-0.1,0.5c0,0.1-0.1,0.2-0.2,0.2c-0.1,0-0.2,0-0.3,0c0.1,0.2,0.3,0.3,0.5,0.3
				c0.2,0.1,0.4,0,0.6-0.1c0.5-0.1,0.9-0.1,1.4,0c0.5,0.2,0.8,0.3,0.8,0.2s0.1-0.3,0.4-0.6c1.3-1,2.7-1.9,4.1-2.7
				c1.6-0.9,3.1-1.8,4.5-2.5c0.4-0.4,0.9-0.6,1.4-0.8c0.6-0.2,1.2-0.6,1.8-0.9c0.5-0.2,0.9-0.4,1.4-0.7c0.5-0.3,1-0.5,1.6-0.6
				c0.3-0.1,0.6-0.3,0.8-0.6c0.1-0.1,0.2-0.2,0.3-0.2c0.1-0.1,0.3-0.1,0.4-0.1c0.1-0.1,0.2-0.1,0.3,0c0,0,0,0.1,0.1,0.1
				c0,0,0.1,0,0.1,0c0.2-0.1,0.4-0.3,0.5-0.5c0.1-0.2,0.3-0.4,0.5-0.4c0.4-0.1,0.8-0.2,1.2-0.2c0.5,0,0.9-0.1,1.3-0.2l0.7-0.5
				c0.2,0,0.3,0.1,0.5,0.1c0.2,0.1,0.3,0,0.3-0.2c-0.4,0-0.9,0-1.3-0.1c-0.5,0-0.9,0-1.3,0.1c0.6-0.3,1.3-0.4,2-0.4
				c0.8,0.1,1.6,0,2.4-0.1c0.1,0.2,0.2,0.4,0.4,0.5c0.2,0.1,0.4,0.1,0.6,0.1h1.2c0.4,0.5,0.9,0.8,1.5,1c0.6,0.2,1.1,0.7,1.4,1.2
				c0.5,0.6,0.7,1.3,0.8,2.1c0.1,0.8-0.1,1.6-0.6,2.3c-1.9,3.3-5.1,5.8-9.5,7.3c-4.9,1.7-10.1,2.6-15.3,2.6c3,3.1,6.5,5.5,10.5,7.1
				c4.4,1.8,8.9,3.1,13.6,4c3.4,0.7,6.9,1,10.4,1c3.5,0,7-0.2,10.4-0.7c3.5-0.5,7-1,10.4-1.7c0.1,0.3,0.1,0.5,0,0.6
				c-0.1,0-0.1,0-0.2,0.1s-0.1,0.1-0.1,0.2c0.1,0,0.2,0,0.2,0s0.1-0.1,0.2-0.2c0-0.1,0.1-0.1,0.2-0.2c0.1,0,0.2,0,0.3,0
				c-0.1-0.9-0.6-1.1-1.4-0.6c0.4-0.3,0.8-0.6,1.3-0.6C344.9,166.2,345.3,166.3,345.5,166.7L345.5,166.7z M267.7,145l0.3-0.6
				l0.6-0.6c0.2-0.2,0.4-0.4,0.5-0.6c0.1-0.1,0.2-0.1,0.3-0.2c0.1-0.1,0.3-0.2,0.4-0.3c0.4-0.5,0.8-1,1.2-1.6c0.4-0.6,1-1,1.6-1.3
				c-0.2,0.4-0.5,0.8-0.9,1.1c-0.5,0.4-0.8,0.7-0.9,0.8c-0.1,0.1-0.2,0.3-0.2,0.4c0,0.2,0,0.3,0,0.5c-0.4,0.1-0.6,0.3-0.6,0.4
				c0,0.1,0,0.1-0.1,0.2c0,0.1-0.1,0.1-0.1,0.2c-0.1,0.1-0.1,0.1-0.2,0.1c-0.1,0-0.2,0-0.3,0s-0.2,0-0.3,0c-0.1,0-0.2,0.1-0.2,0.1
				c0,0.1,0,0.3,0,0.4c0,0.1-0.1,0.3-0.2,0.4L267.7,145L267.7,145L267.7,145z M270.5,157.8c0.1,0,0.1,0,0.2-0.1c0,0,0.1-0.1,0.1-0.1
				l0.1-0.4c0-0.1,0.1-0.2,0.1-0.3c0.1-0.1,0.2,0,0.3,0.1c0-0.3,0-0.4-0.1-0.4s-0.1,0-0.1-0.1L270.5,157.8z M270.9,156.3
				c0.1-0.3,0.1-0.3,0.2-0.1s0.2,0.3,0.3,0.3c0-0.1,0-0.2,0.1-0.4c0.1-0.1,0.1-0.3,0.1-0.4c-0.1-0.2-0.1-0.2-0.2-0.1s-0.2,0.1-0.4,0
				c0.2-0.2,0.4-0.4,0.6-0.6c0-0.1,0.1-0.1,0.1-0.2c0-0.1,0-0.1,0-0.2s0-0.1-0.1-0.2c-0.1-0.1-0.1-0.1-0.2-0.1
				C271.2,154.9,271,155.6,270.9,156.3L270.9,156.3z M271.6,153.5c0.2-0.2,0.4-0.3,0.6-0.4c0.2,0,0.3-0.2,0.4-0.6
				c-0.2-0.1-0.3-0.1-0.4,0.2s-0.1,0.3-0.1,0l0.5-1.2c0.4,0,0.5-0.1,0.4-0.4s-0.3-0.6-0.4-0.9c-0.1,0.6-0.3,1.1-0.5,1.6
				C271.9,152.4,271.7,152.9,271.6,153.5L271.6,153.5z M274.6,139.2c0-0.3,0-0.6,0.2-0.8c0.1-0.1,0.2-0.2,0.4-0.3
				c0.1,0,0.2,0,0.3-0.1c0.1,0,0.1,0,0.1-0.1c0.3,0.1,0.2,0.3-0.3,0.6S274.6,139.1,274.6,139.2L274.6,139.2L274.6,139.2z
				 M276.9,137.7c0-0.2,0-0.3,0.1-0.5c0.1-0.1,0.2-0.3,0.3-0.4c0.3-0.2,0.5-0.6,0.6-1c-0.3,0-0.4,0.1-0.4,0.2s-0.1,0-0.3-0.3
				c0.1,0.2,0.1,0.4,0,0.5c0,0.2-0.1,0.3-0.2,0.5c-0.1,0.1-0.2,0.3-0.2,0.4C276.8,137.3,276.8,137.5,276.9,137.7L276.9,137.7z
				 M277,135.2c0.1,0.1,0.3,0.1,0.5,0c0.1-0.1,0.3-0.1,0.3-0.3c0.2-0.3,0.4-0.6,0.6-1c0.1,0,0,0,0-0.1c0,0-0.1-0.1-0.1-0.1
				c0-0.1,0-0.1,0-0.2L277,135.2L277,135.2z M278.5,132.5c0.1,0.1,0.2,0.1,0.3,0c0.1-0.1,0.1-0.2,0.1-0.3c0-0.1,0.1-0.2,0.1-0.4
				s0.1-0.1,0.4-0.1c-0.1-0.1-0.1-0.3-0.1-0.5c0-0.2,0-0.3,0.1-0.5c0.2-0.2,0.3-0.4,0.5-0.6l0.5-0.5c0.1-0.1,0.1-0.2,0.2-0.4
				c0-0.1,0-0.3,0-0.4C279.6,129.8,278.8,131.1,278.5,132.5L278.5,132.5L278.5,132.5z M283.9,120.3c-0.1,0.7-0.4,1.4-0.7,2
				c-0.4,0.7-0.7,1.4-1,2.1c0.1-0.8,0.4-1.5,0.8-2.1C283.3,121.7,283.6,121,283.9,120.3L283.9,120.3z M284.5,123
				c0.1-0.2,0.3-0.3,0.5-0.5c0.2-0.2,0.4-0.4,0.5-0.7c-0.2,0-0.3,0.1-0.5,0.2c-0.1,0.1-0.2,0.2-0.2,0.4
				C284.7,122.5,284.6,122.7,284.5,123C284.5,122.9,284.5,123,284.5,123z M285.9,115.8c0.2,0.1,0.2,0.3,0,0.5c0,0.1-0.1,0.2-0.2,0.2
				s-0.2,0.1-0.3,0.1c0-0.3,0.1-0.4,0.2-0.5c0.1,0,0.1-0.1,0.1-0.1S285.9,115.9,285.9,115.8L285.9,115.8L285.9,115.8z M286.8,114.2
				c0.1,0,0.1,0.1,0.1,0.1c0,0.1,0.1,0.1,0.1,0.2c0,0.1,0,0.1,0,0.2c0,0.1-0.1,0.1-0.1,0.2c-0.2,0.2-0.3,0.4-0.3,0.7
				c-0.2-0.1-0.2-0.3,0-0.6C286.7,114.7,286.8,114.4,286.8,114.2L286.8,114.2L286.8,114.2z M290.4,148.8c-0.5,0.2-1,0.5-1.5,0.9
				c-0.4,0.3-0.7,0.7-1,1.1L290.4,148.8z M293.8,101.7c0.4-0.2,0.7-0.5,1-0.8c0.1-0.1,0.3-0.3,0.4-0.4c0.1-0.2,0.2-0.4,0.2-0.6
				c-0.4,0.2-0.7,0.5-0.9,0.8C294.2,101,294,101.3,293.8,101.7L293.8,101.7L293.8,101.7z M296.8,113c-0.2,0.4-0.4,0.8-0.6,1.1
				c-0.1,0.3-0.2,0.6-0.1,0.9c0.2-0.3,0.5-0.7,0.8-1.2S297.1,113.1,296.8,113L296.8,113z M303.2,147.3c-0.2,0.2-0.5,0.4-0.9,0.5
				c-0.4,0.1-0.7,0.2-1,0.4c-0.7,0.3-1.4,0.5-1.9,0.8s-1.1,0.6-1.6,0.9c-0.1,0.1-0.2,0.2-0.4,0.1c-0.1-0.1-0.2-0.1-0.3-0.1
				c-0.2,0.1-0.5,0.3-0.6,0.5c-0.1,0.2-0.2,0.3-0.4,0.4c0.7-0.1,1.4-0.3,2-0.6c0.7-0.3,1.1-0.2,1.5,0.1c0.6-0.6,1.4-1.1,2.2-1.5
				c0.8-0.3,1.5-0.8,2.1-1.5c-0.2,0.1-0.3,0.1-0.4,0c0,0,0-0.1,0-0.1c0,0-0.1-0.1-0.1-0.1c0,0-0.1,0-0.1,0S303.2,147.2,303.2,147.3
				L303.2,147.3L303.2,147.3z M298.4,112c0-0.2,0.1-0.3,0.2-0.4c0.1-0.1,0.2-0.2,0.4-0.3c0.1,0,0.1-0.1,0.2-0.2
				c0-0.1,0.1-0.1,0.1-0.2c0-0.1,0-0.2,0-0.2c0-0.1-0.1-0.2-0.1-0.2c-0.1,0.3-0.2,0.6-0.5,0.8c-0.1,0.1-0.2,0.2-0.2,0.3
				C298.3,111.7,298.3,111.8,298.4,112C298.3,111.9,298.4,112,298.4,112z M334.7,172.9c0.1,0.1,0.3,0.1,0.5-0.1s0.1-0.3-0.2-0.4
				c0,0,0,0.1,0,0.1s0,0.1,0,0.1s0,0-0.1,0s0,0-0.1,0C334.7,172.5,334.6,172.6,334.7,172.9L334.7,172.9L334.7,172.9z M337.1,171.5
				c-0.1-0.3,0-0.4,0.4-0.5s0.4-0.2,0.1-0.3l-1,0.3c0.3,0,0.4,0.1,0.3,0.2c0,0.1,0,0.1,0,0.1C337,171.4,337,171.4,337.1,171.5
				L337.1,171.5z M340.5,171.1c0.1-0.1,0.2-0.2,0.2-0.4c0-0.1,0-0.2,0-0.3c0-0.1-0.1-0.2-0.2-0.2c-0.1,0.3-0.1,0.4-0.2,0.4
				c-0.2-0.1-0.4-0.1-0.5-0.1c-0.1,0.1-0.1,0.3-0.2,0.4s0,0.2,0.2,0.2c-0.1-0.1,0-0.2,0.2-0.3c0.1,0,0.2,0,0.3,0
				C340.3,170.8,340.4,170.9,340.5,171.1l-0.2,0L340.5,171.1L340.5,171.1z M340.7,169.4h-0.3c-0.2,0.3-0.1,0.5,0.3,0.5V169.4z"/>
			<path d="M442.4,173.5l1.1,0.1l1.7,0.1c0.5,0,1.1,0.1,1.6,0.3c0.4,0.1,0.7,0.3,0.9,0.6c-0.5-0.1-1,0-1.4,0.3
				c-0.2,0.1-0.4,0.2-0.6,0.2c-0.2,0-0.5-0.1-0.6-0.2c-0.2-0.1-0.4-0.2-0.6-0.3c-0.2-0.1-0.5-0.1-0.7,0c-0.4,0.1-0.9,0.1-1.3,0
				c-0.4,0-0.7-0.1-1-0.1c-0.4-0.1-0.9-0.2-1.3-0.2c-0.4-0.1-0.8,0-1.1,0.1c-0.2,0.1-0.3,0.2-0.4,0.3c-0.1,0.1-0.2,0.3-0.2,0.5
				c0.5,0.1,1,0.1,1.5,0c0.5-0.1,1-0.2,1.5-0.2c0.5,0.1,0.6,0.2,0.5,0.3s0,0.2,0.4,0.3c0.2,0.1,0.4,0.1,0.5,0.1
				c0.2,0,0.5,0.1,0.6,0.2c-1,0.3-2.1,0.4-3.1,0.2c-1-0.2-2.1,0-3,0.5c-0.1,0.1-0.3,0.2-0.5,0.2c-0.2,0-0.3,0-0.5,0s-0.3,0-0.5,0
				c-0.2,0-0.3,0.1-0.5,0.2c-0.4,0.4-0.9,0.7-1.4,0.8c-0.5,0.1-1,0.1-1.6,0.2c-1,0-2,0.2-3,0.6c-1,0.4-2,0.6-3,0.7
				c-0.8,0.1-1.5,0.2-2.2,0.5c-0.7,0.3-1.4,0.5-2.2,0.8c-2.8,0.9-5.4,2.2-7.7,3.9c-2.3,1.7-4.5,3.7-6.5,5.8
				c-0.9,1.1-1.8,2.1-2.8,3.1c-1,1-1.8,2.1-2.5,3.3c-1.1,1.8-2.3,3.6-3.5,5.3s-2.3,3.5-3.3,5.3c-1.3,2.2-2.5,4.4-3.6,6.7
				c-1.1,2.2-2.5,4.3-4.3,6.1c-0.3,0-0.5-0.1-0.6-0.4s-0.3-0.3-0.7-0.2c-0.3,0-0.7,0-1-0.2s-0.6-0.4-0.8-0.6
				c-0.2-0.2-0.4-0.5-0.4-0.8c-0.1-0.3-0.1-0.6,0-0.9c0.2-0.5,0.2-0.6,0-0.6s-0.4,0-0.6-0.4c0.2-0.3,0.3-0.6,0.4-1
				c0.1-0.3,0.2-0.7,0.4-1c0.1-0.3,0.3-0.6,0.6-0.7c0.3-0.3,0.5-0.6,0.5-0.8c0.3-0.6,0.5-1.2,0.8-1.8c0.2-0.6,0.4-1.1,0.4-1.8
				c0.1,0,0.2-0.1,0.5-0.3s0.4-0.2,0.4,0c0.2-0.9,0.5-1.7,1-2.5c0.5-0.7,1-1.5,1.5-2.2c0.3,0,0.6-0.1,0.9-0.2
				c-0.1-0.1-0.2-0.2-0.3-0.1s-0.2,0-0.3-0.1s-0.1-0.4,0.1-0.4s0.2-0.2,0.1-0.5c0.1-0.1,0.3-0.1,0.4,0.1c0.1,0.1,0.1,0.2,0.2,0.3
				s0.2,0.1,0.4,0.1c0.2-0.4,0.3-0.9,0.3-1.3c0-0.4,0-0.8-0.2-1.1c0.1-0.2,0.2-0.2,0.3-0.1s0.2,0.3,0.4,0.4c0.2-0.2,0.4-0.4,0.5-0.6
				c0.1-0.2,0.1-0.5,0-0.8c0,0,0.1,0.1,0.2,0.1c0.1,0,0.1,0,0.2,0c0.1,0,0.2-0.1,0.3-0.1c-0.1-0.2-0.1-0.4-0.1-0.6s0.1-0.4,0.2-0.6
				c0.2-0.4,0.4-0.7,0.5-1.1c0.2-0.3,0.4-0.6,0.4-1s0.2-0.7,0.5-1c0.1-0.1,0.2-0.2,0.2-0.3c0-0.1,0-0.2-0.1-0.3
				c-0.1-0.1-0.1-0.2-0.1-0.4c0-0.1,0-0.3,0.1-0.4c0.1-0.2,0.3-0.4,0.5-0.6c0.2-0.1,0.4-0.4,0.5-0.6c0.1-0.4,0.2-0.9,0.2-1.3
				c0-0.5,0.3-0.7,0.8-0.8c0.3,0.3,0.3,0.6,0,1.1c0.3,0,0.4-0.1,0.5-0.1c0.1-0.1,0.2-0.2,0.3-0.3c-0.1-0.2-0.2-0.4-0.5-0.5
				c-0.1,0-0.2-0.1-0.2-0.2c-0.1-0.1-0.1-0.2-0.1-0.3c-0.1-0.5-0.1-1,0.1-1.5c0.2-0.5,0.4-1,0.5-1.5c0.3-0.6,0.6-1.1,0.7-1.8
				c0.2-0.7,0.3-1.3,0.5-1.8c0.9-3.2,1.7-6.4,2.5-9.6s1.3-6.5,1.8-10c0.1-1.1,0.2-2.1,0.1-3.2c0-1-0.1-2-0.1-3.2
				c0.1-1.9-0.4-3.8-1.4-5.5c-0.5-0.7-1.2-1.2-2-1.6c-0.8-0.4-1.6-0.5-2.5-0.4c-1,0-1.9,0.1-2.9,0.4c-2,0.5-3.9,1.3-5.6,2.4
				c-1.8,1.1-3.5,2.3-5.1,3.6c-0.7,0.5-1.4,1.1-2,1.6c-0.6,0.6-1.3,1.1-2,1.6c-1,0.7-2,1.5-3,2.3c-1,0.8-2,1.7-2.8,2.6
				c-0.3,0.3-0.6,0.7-1,1.2c-0.4,0.5-0.9,1-1.4,1.4c-0.5,0.4-1.1,0.7-1.7,0.9c-0.3,0.1-0.6,0.1-0.8,0s-0.5-0.2-0.8-0.4
				c-0.2-0.1-0.4-0.1-0.6-0.1c-0.3,0-0.5,0.1-0.6,0.1c-0.2-0.1-0.5-0.2-0.6-0.4c-0.1-0.1-0.2-0.1-0.3-0.2c-0.1-0.1-0.2-0.1-0.4-0.1
				c-0.1-0.3-0.2-0.7-0.2-1c0-0.3,0-0.5-0.1-0.8c0-0.3-0.1-0.4-0.2-0.1s-0.3,0.2-0.5,0c0-0.5-0.1-0.9-0.2-1c-0.2-0.3-0.3-0.6-0.3-1
				c-0.1-0.8-0.2-1.5-0.2-2.3c0-0.8,0-1.6,0-2.3c0.1-1.4,0.3-2.9,0.6-4.3c0.1-0.3,0.2-0.6,0.2-0.9c0-0.3,0.1-0.6,0.2-0.9
				c0.1-0.2,0.3-0.3,0.5-0.2s0.2,0,0.2-0.2s0.1-0.4-0.1-0.6c-0.1-0.1-0.1-0.2-0.2-0.3c0-0.1,0-0.2,0.1-0.3c0,0.1,0.1,0.1,0.1,0.1
				c0,0.1,0.1,0.1,0.2,0.1c0.1,0,0.1,0,0.2,0s0.1,0,0.2-0.1c0-0.6,0.2-1,0.5-1.1s0.5-0.5,0.5-1.1c0-0.6,0.1-1.1,0.4-1.7
				c0.2-0.7,0.5-1.5,0.8-2.3s0.7-1.6,1-2.3c0.3-0.6,0.6-1.1,0.9-1.7c0-0.1,0-0.4,0.1-0.9c0-0.2,0-0.3,0.1-0.5
				c0.1-0.2,0.2-0.3,0.3-0.4c0.1-0.1,0.2-0.3,0.2-0.4c0-0.2,0-0.3,0-0.5c0-0.2-0.1-0.3,0-0.5c0-0.2,0.1-0.3,0.2-0.4
				c0-0.1,0.1-0.2,0.3-0.4c0.2-0.2,0.4-0.3,0.5-0.4c0.1-0.5,0.3-0.9,0.6-1.3c0.4-0.4,0.9-0.7,1.4-0.8c0.4-0.1,0.9,0.1,1.2,0.3
				c0.4,0.3,0.9,0.5,1.3,0.7c0.3,0.5,0.5,1,0.5,1.6c0,0.6-0.1,1.1-0.2,1.6c-0.1,0.6-0.3,1.1-0.6,1.7c-0.2,0.5-0.5,1.1-0.6,1.6
				c-0.5,1.5-1.1,3-1.6,4.5s-1.1,3.1-1.6,4.7c-0.1,0.3-0.2,0.6-0.3,0.8s-0.2,0.5-0.4,0.8c-0.1,0.4-0.1,0.7-0.1,1.1
				c0,0.5-0.1,0.7-0.4,0.6c-0.1,0-0.2,0-0.3,0.1c-0.1,0.1-0.2,0.2-0.2,0.3v1.1c0,0.4,0,0.9-0.1,1.3c0.2-0.1,0.5-0.3,0.7-0.4
				c0.2-0.2,0.4-0.4,0.7-0.6c-0.1,0.3-0.3,0.5-0.5,0.6c-0.2,0.1-0.2,0.3-0.1,0.6c0.2,0.1,0.3,0,0.4-0.1c0.1-0.1,0.2-0.3,0.2-0.4
				c0.1-0.2,0.2-0.4,0.4-0.5c0.2-0.2,0.4-0.3,0.6-0.2c0.1,0.3,0.1,0.4-0.2,0.5s-0.3,0.3-0.2,0.6c0.4,0,0.7-0.2,1-0.4
				c0.3-0.2,0.6-0.5,0.8-0.8c1.7-1.2,3.5-2.4,5.3-3.5s3.8-2.4,6-3.7c0-0.1,0.1-0.2,0.1-0.2c0.1-0.1,0.1-0.1,0.2-0.1l0.6-0.1
				c0.2,0,0.4-0.1,0.6-0.2c0.1-0.1,0.2-0.1,0.3-0.2c0.1-0.1,0.1-0.2,0.1-0.3c0.3-0.1,0.7-0.2,1-0.3l1.1-0.2c0.3-0.1,0.6-0.3,0.8-0.5
				c0.1-0.1,0.2-0.2,0.4-0.2c0.1-0.1,0.3-0.1,0.4,0c0.7,0.1,1.4-0.1,2-0.5c1.4-0.5,2.9-0.6,4.3-0.2c1.6,0.3,3.1,0.8,4.5,1.5
				c1.1,0.6,2.2,1.3,3.2,2c1.1,0.7,1.9,1.8,2.2,3.1c0,0.3,0.2,0.6,0.4,0.8c0.2,0.2,0.3,0.5,0.4,0.8c0.5,1,0.8,2.1,0.9,3.3
				c0.2,1.4,0.4,2.9,0.4,4.4c0.1,1-0.1,1.9-0.6,2.8c-0.1,0.2-0.2,0.4-0.3,0.6c0,0.2,0,0.5,0.1,0.7c0.1,0.5,0.1,1,0,1.5
				c-0.1,0.6-0.3,1.2-0.4,1.8s-0.2,1.2-0.3,1.7c-0.2,1-0.4,1.9-0.5,2.9c-0.1,1-0.4,1.9-1,2.7c-0.2,0.3-0.3,0.6-0.3,0.9
				c0,0.3-0.1,0.7-0.2,1c-0.2,0.5-0.4,0.9-0.5,1.4c-0.2,0.5-0.2,1,0,1.5c0,0.4-0.1,0.7-0.2,1c-0.1,0.4-0.3,0.7-0.5,0.9
				c-0.1,0.2-0.2,0.4-0.2,0.6c0,0.2,0,0.4,0.1,0.6c0.2,0.4,0.2,0.7-0.1,0.9c0.2,0,0.4-0.1,0.6-0.1c0.2-0.1,0.4-0.2,0.5-0.4
				c0.3-0.3,0.7-0.7,1-1.1c0.3-0.4,0.6-0.7,1-1c0.1-0.1,0.3-0.2,0.5-0.3s0.4-0.1,0.6-0.1c0.1,0.1,0,0.3-0.1,0.5s-0.4,0.4-0.5,0.6
				c-0.2,0.2-0.4,0.5-0.5,0.7c-0.1,0.1-0.2,0.3-0.2,0.5c0.2,0.1,0.5,0,0.9-0.3s0.9-0.8,1.4-1.2s0.9-0.9,1.3-1.3s0.7-0.6,0.8-0.6
				c0.2,0,0.3,0,0.5,0c0.2,0.1,0.3,0.1,0.5,0c0.2-0.2,0.4-0.4,0.5-0.7c0.1-0.2,0.3-0.3,0.7-0.4l1.1-0.5c0.4-0.1,0.8-0.4,1-0.8
				c0.4-0.5,1-0.8,1.6-0.9c0.7-0.1,1.3-0.5,1.8-1c0.3-0.1,0.6,0,0.8,0.1c0.2,0.1,0.5,0,0.8-0.3c0.2,0,0.5-0.1,0.6-0.2
				c0.2-0.1,0.4-0.2,0.6-0.3c0.4,0,0.8-0.1,1.2-0.3c0.1-0.1,0.3-0.2,0.5-0.2c0.2,0,0.4,0,0.5,0.1c0.2,0.1,0.4,0.1,0.5,0
				c0.2,0,0.3-0.1,0.5-0.2c0.2-0.2,0.6-0.3,0.9-0.3h1c0.3,0,0.6,0,0.9-0.1c0.2-0.1,0.3-0.1,0.5-0.3s0.2-0.3,0.3-0.4
				c-0.3-0.1-0.7-0.1-1-0.1c-0.4,0-0.7,0-1.1,0.1c-0.6,0-1.2,0.1-1.8,0.2c-0.6,0.1-1.2,0.4-1.7,0.7c-0.6,0.5-1.4,0.8-2.2,0.7
				c-0.9,0-1.7,0.1-2.5,0.3c-0.7,0.2-1.3,0.6-1.8,1.1c-0.5,0.5-1.2,0.8-1.9,0.9c0.9-1.1,2.1-1.9,3.5-2.2c1.4-0.4,2.7-0.8,4-1.3
				c0.1-0.1,0.2-0.1,0.3,0s0.2,0.1,0.5,0.1c0.2,0,0.5-0.1,0.7-0.2c0.2-0.2,0.4-0.3,0.7-0.4c0.5-0.1,1-0.1,1.5-0.2s1-0.2,1.5-0.3
				c1.3-0.3,2.6-0.6,3.9-0.6c1.3-0.1,2.7-0.1,4-0.1c1.1-0.1,2.1,0,3.2,0.1L442.4,173.5L442.4,173.5z M372.2,135.1
				c-0.1,0.1-0.2,0.5-0.4,1s-0.4,0.8-0.7,0.7c0-0.4,0.1-0.8,0.3-1.1c0.1-0.2,0.2-0.3,0.3-0.4S372,135.1,372.2,135.1L372.2,135.1z
				 M406.7,186.2c-0.1-0.3-0.3-0.5-0.8-0.5c0,0,0,0.1,0,0.1c0,0,0,0.1,0.1,0.1c0.1,0.1,0.1,0.2,0.1,0.3H406.7z M409.8,181.7h0.4
				c0.2,0,0.4-0.1,0.5-0.2c0.1,0.4,0,0.6-0.2,0.6c-0.2,0-0.5,0.1-0.7,0.2V181.7L409.8,181.7z M411.5,180.9c0,0.3-0.3,0.5-0.8,0.5
				c0.1-0.2,0.2-0.3,0.3-0.4S411.4,180.9,411.5,180.9z M412.3,180.2c0.3,0.3,0.4,0.5,0.2,0.6c-0.2,0-0.5,0.1-0.7,0.1
				C411.8,180.4,412,180.2,412.3,180.2z M431.1,173.9c0.1,0.3,0.2,0.5,0.5,0.7c0.1,0.1,0.2,0.2,0.4,0.2c0.1,0,0.3,0,0.4-0.1
				c0-0.4-0.2-0.6-0.5-0.7C431.6,174,431.3,174,431.1,173.9L431.1,173.9z M433.6,174.1c-0.3,0.2-0.3,0.4-0.2,0.6s0.3,0.2,0.6,0.1
				c0-0.1,0-0.3-0.1-0.4C433.8,174.3,433.7,174.2,433.6,174.1L433.6,174.1z M443.8,175.8c0.1-0.3,0.3-0.5,0.5-0.6
				c0.1,0,0.3,0,0.4,0.1c0.1,0,0.2,0.1,0.4,0.2c-0.2,0.1-0.4,0.1-0.6,0.1C444.2,175.6,443.9,175.6,443.8,175.8z"/>
			<path d="M445.8,158v1.1c0,0.5,0.1,0.8,0.2,0.8s0.3-0.1,0.2-0.3l-0.1-0.7c0-0.2,0-0.4,0-0.6c0-0.2,0.2-0.2,0.5-0.2v1.2
				c0.3,0,0.4-0.2,0.4-0.6c0-0.3-0.1-0.6-0.2-0.9c-0.1-0.4-0.2-0.8-0.2-1.1c0.3,0.6,0.5,0.9,0.6,0.9s0.3-0.6,0.3-1.8
				c0.1,0,0.3-0.2,0.5-0.7c0.1-0.3,0.2-0.5,0.2-0.8c0-0.2-0.1-0.5-0.3-0.7c-0.1-0.1-0.2-0.3-0.3-0.3c-0.1-0.1-0.3-0.1-0.4-0.1
				c-0.1-0.1-0.1-0.2,0-0.2c0.3,0,0.7,0,1,0c-0.3-0.5-0.5-0.9-0.7-1.4c-0.2-0.5-0.2-0.9-0.2-1.4c0-1,0.3-2,0.7-2.9
				c0.5-1.1,1-2.2,1.6-3.3s1.3-2.4,1.9-3.6c0.6-1.2,1.2-2.5,1.6-3.8l-0.3-1.6c-1.9,0.1-3.8,0.4-5.7,0.9c-1.8,0.5-3.6,1.1-5.4,1.9
				c-2.5,1.2-5,2.2-7.6,3.2l-1.2,0.6l-2.1,1.1c0.1,0.1,0.2,0.2,0.3,0.4c0.1,0.2,0.3,0.3,0.5,0.4c0.5,0.2,0.9,0.5,1.2,0.8
				c0.4,0.5,0.8,1,1,1.6c0.1,0.1,0.2,0.1,0.2,0.2s0,0.2,0,0.3c-0.1,0.2,0,0.4,0.3,0.5s0.4,0.4,0.5,0.5s0.2,0.5,0.2,1l0.4,0.2
				c0.3,1.1,0.3,2.1,0.1,3.2c-0.2,1.4-0.5,2.7-0.8,4c-0.1,0.4-0.2,0.8-0.2,1.2c-0.3,1-0.8,1.9-1.5,2.7c0,0.1-0.1,0.1-0.2,0.1
				c-0.1,0-0.2,0-0.2,0c-0.2-0.1-0.3,0-0.4,0.1c-0.3,0.5-0.5,1-0.7,1.3c-0.2,0.4-0.5,0.7-0.8,0.9c-0.9,1.1-1.9,2.2-3,3.1
				c-1,0.9-2.1,1.7-3.3,2.3c0,0.1-0.1,0.3-0.2,0.4s-0.2,0.2-0.4,0.2c-0.3,0-0.6,0.1-0.9,0.1c-0.2,0.2-0.3,0.4-0.4,0.5
				c-0.1,0.1-0.2,0.2-0.3,0.3c-0.1,0.1-0.2,0.1-0.4,0.1c-0.7,0.3-1.4,0.4-2.2,0.5c-0.6,0.1-1.2,0.2-1.9,0.2c-0.3,0-0.5-0.1-0.8-0.1
				l-1.2-0.3c-0.4-0.1-0.8-0.2-1.2-0.4c-0.2-0.1-0.4-0.2-0.6-0.3c-0.3-0.1-0.5-0.4-0.6-0.7c-0.1-0.3-0.3-0.5-0.5-0.7
				c-0.1-0.1-0.2-0.1-0.4-0.1c-0.2,0-0.4-0.1-0.5-0.2l-1.2-1.8c-0.4-0.5-0.8-1-1.1-1.5c-0.3-0.5-0.4-1.1-0.4-1.6
				c0.1-0.1,0.1-0.3,0.1-0.4s-0.1-0.3-0.1-0.4c-0.1-0.1-0.2-0.3-0.2-0.5c0.1-0.5,0.2-0.8,0.4-1.1c0.1-0.3,0.1-0.6,0-0.9
				c0-0.1,0-0.1,0-0.1s0,0,0,0.1c0.1-0.5,0.1-1.1,0.2-1.6c0.1-0.6,0.2-1.1,0.4-1.6h0.3c0.3-0.6,0.5-1.2,0.6-1.9
				c0-0.3,0.1-0.5,0.3-0.8c0.2-0.2,0.4-0.4,0.7-0.4c0-0.2,0-0.3-0.1-0.4c0,0-0.1-0.1-0.1-0.1c0-0.1,0-0.1,0-0.2c0,0,0.1,0,0.1,0
				c0,0,0.1,0.1,0.1,0.1c0,0.1,0,0.1,0.1,0.1c0-0.1,0-0.5,0-1s0.2-0.8,0.5-0.8s0.4-0.2,0.3-0.1s-0.1,0,0-0.2c0-0.2,0.1-0.5,0.2-0.7
				c0.1-0.2,0.3-0.4,0.5-0.5c0.4-0.3,0.6-0.6,0.5-0.9c0-0.3,0.1-0.3,0.2-0.1s0.2,0,0.2-0.3c-0.3,0-0.3-0.1-0.2-0.4
				c0.1-0.3,0.3-0.7,0.5-0.9c0.1,0,0.1-0.1,0.2-0.1c0.1,0,0.2,0,0.2,0.1c0.1,0,0.2,0,0.3,0c0.1,0,0.2-0.1,0.3-0.1v-1
				c0.3,0.1,0.5,0.1,0.5-0.1c0.1-0.2,0.2-0.4,0.2-0.6c-0.1-0.1-0.1-0.1-0.1,0.1s-0.1,0.2-0.2-0.1c0.2-0.4,0.4-0.7,0.8-0.9
				c0.4-0.3,0.7-0.7,0.9-1.1v-0.8c0.1-0.3,0.2-0.5,0.5-0.5c0.1-0.1,0.2-0.2,0.2-0.3s0-0.3,0-0.4c-0.1-0.3,0.1-0.3,0.7-0.2
				c0.1-0.3,0-0.4-0.2-0.3c0,0-0.1,0.1-0.1,0.1c0,0-0.1,0-0.1,0s-0.1,0-0.1-0.1s-0.1-0.1-0.1-0.1c-0.2,0-0.4,0-0.5,0.1
				s-0.3,0.2-0.4,0.4c-0.1,0.1-0.2,0.3-0.3,0.3c-0.1,0.1-0.3,0.1-0.5,0c0.2-0.1,0.3-0.3,0.4-0.6c0.1-0.2,0.1-0.3,0-0.2
				c0.2-0.3,0.3-0.4,0.4-0.4c0.1,0,0.1-0.1,0.2-0.1c0.1-0.1,0.3-0.2,0.4-0.3c0.1-0.1,0-0.3-0.4-0.4c0.1-0.3,0.4-0.4,0.7-0.2
				s0.6,0.2,0.7-0.1c0,0.2,0.1,0.4,0.2,0.6c0.1,0.2,0.3,0.3,0.5,0.3c0.2,0.1,0.4,0.1,0.7,0c0.2-0.1,0.4-0.2,0.6-0.3
				c-0.1-0.3-0.1-0.5,0-0.6s0.5,0,1,0.3c0,0,0.1,0.1,0.1,0.1c0,0,0.1,0,0.1,0c0.1,0,0.2,0,0.4,0.1c0.1,0.1,0.3,0.1,0.4,0.1
				c0.2,0,0.4,0,0.5-0.1c0.1,0,0.4-0.1,0.9-0.1c0-0.4,0-0.8,0.1-1.1c0.1-0.4,0.4-0.7,0.6-1c0.3-0.3,0.6-0.5,0.9-0.7
				c0.4-0.2,0.8-0.2,1.1-0.2c0,0.3-0.2,0.4-0.5,0.5c-0.3,0.1-0.7,0.2-0.9,0.5c0.3,0.4,0.2,0.6-0.1,0.7c-0.3,0.1-0.6,0.3-0.9,0.6
				c0.3,0.3,0.6,0.2,1.1-0.4c0.5-0.6,1.1-1,1.9-1.1c0.3,0.3,0.2,0.4,0,0.2s-0.5,0-0.5,0.2c0.2,0,0.4,0,0.5-0.1
				c0.2-0.1,0.3-0.2,0.5-0.3c0.2-0.3,0.6-0.4,1.3-0.4c0-0.3-0.3-0.5-1-0.5c0.3-0.3,0.5-0.4,0.7-0.2s0.5,0,0.8-0.2
				c0.1,0.1,0.3,0.2,0.4,0.3c0.2,0.1,0.3,0.1,0.5,0c0.3-0.1,0.6-0.2,0.9-0.3l0.9-0.4c0.4-0.1,0.8-0.2,1.2-0.1l-0.8,0.5
				c1.2-0.4,1.9-0.6,2.1-0.7c0.1-0.1,0.3-0.1,0.4-0.2l-0.7,0.2c-0.3,0.1-0.5,0.1-0.8,0.1c0-0.1-0.1-0.1-0.1-0.2
				c-0.1,0-0.1-0.1-0.2-0.1c-0.2,0-0.2-0.2-0.2-0.4c0.5,0.1,1,0.1,1.4-0.1c0.5-0.2,1-0.4,1.5-0.7s1.1-0.5,1.6-0.7
				c0.6-0.2,1.3-0.4,1.9-0.4c-0.2,0.2-0.4,0.5-0.7,0.6l1.2-0.3c0.4-0.2,0.7-0.5,1.1-0.7c0.2-0.1,0.4-0.2,0.6-0.2s0.4,0,0.6,0.1
				c1.3-0.5,2.5-0.9,3.7-1.2c1.1-0.3,2.3-0.5,3.5-0.5c1.1,0,2.3,0.2,3.3,0.6c1,0.4,2,1.1,2.8,1.9c0.4,0.6,0.9,1.1,1.4,1.6
				c0.5,0.4,0.8,0.9,0.9,1.5c0.4,0.3,0.7,0.8,0.9,1.2s0.3,1,0.3,1.5c-0.1,1.5-0.5,3.1-1.1,4.5c-0.8,1.9-1.6,3.9-2.5,6.1
				s-1.7,4.2-2.4,6.2c-0.6,1.6-1,3.2-1.1,4.9c0,0.3,0.1,0.6,0.2,0.9c0.2,0.3,0.4,0.5,0.8,0.6c1.1-0.3,2.2-0.8,3.1-1.5
				c1-0.7,2-1.5,2.9-2.4c0.9-0.9,1.9-1.7,2.8-2.6c0.9-0.9,1.9-1.7,2.9-2.4c0.1-0.1,0.2-0.1,0.3-0.2c0.1,0,0.2,0,0.4,0
				c0.2,0,0.3,0,0.5-0.1c0.1-0.1,0.3-0.2,0.4-0.3c1.1-0.9,2-1.9,2.8-3.1c0.5-0.6,0.9-1.3,1.1-2v-0.6c0-0.4,0.1-0.9,0.3-1.2
				c0.2-0.4,0.5-0.7,0.8-0.9c0.3-0.2,0.5-0.5,0.8-0.8c0.2-0.3,0.4-0.6,0.3-1v-0.3c1.7,0.2,3.5,0.6,5.1,1.2c0.7,0.2,1.2,0.6,1.7,1.2
				c0.4,0.6,0.6,1.3,0.6,1.9c0,0.9-0.3,1.8-0.6,2.6c-0.4,1-0.9,2.1-1.4,3.2s-0.9,2.2-1.3,3.4c-0.4,1-0.6,2-0.6,3.1
				c0,0.4,0.1,0.9,0.2,1.3c1.9-0.2,3.7-0.9,5.4-1.9c2-1.2,4-2.5,5.8-4c2-1.6,3.9-3.2,5.8-4.9s3.6-3.1,5.2-4.4
				c0.2,0.1,0.3,0.3,0.4,0.5c0.1,0.2,0.1,0.4,0.1,0.6c-0.1,0.9-0.4,1.8-0.9,2.5c-0.6,0.9-1.1,1.8-1.5,2.8c-0.3,0.5-0.6,1.1-0.9,1.7
				c-0.3,0.6-0.6,1.1-1.1,1.5c-1.1,1.1-2.3,2.3-3.7,3.6c-1.4,1.4-2.9,2.6-4.5,3.8c-1.6,1.2-3.2,2.2-5,3c-1.6,0.8-3.4,1.2-5.2,1.2
				c-1.2,0.1-2.4-0.3-3.4-0.9c-0.8-0.6-1.6-1.2-2.2-2l-1.6-2c-0.2-0.2-0.4-0.5-0.6-0.6c-0.3-0.2-0.5-0.2-0.9-0.3
				c-0.7,0-1.6,0.6-2.5,1.6s-2.1,2.3-3.3,3.6c-1.3,1.3-2.7,2.5-4.3,3.5c-1.6,1.1-3.5,1.6-5.4,1.6c-1.7,0-3.4-0.6-4.7-1.8
				c-0.3-0.3-0.6-0.6-0.9-1c-0.4-0.5-0.8-1.1-1.1-1.6s-0.9-1.4-1.4-2.1c0-0.4,0-0.9,0.1-1.3c0.1-0.6,0.1-1.2,0.2-1.8
				C445.5,159.6,445.6,158.8,445.8,158L445.8,158L445.8,158z M410,157.9c-0.1,0.7-0.2,1.3-0.3,2c-0.1,0.4,0,0.8,0.1,1.1
				c0.1,0.4,0.3,0.7,0.5,1v-2c0.3,0,0.4,0.1,0.4,0.4c0,0.2,0,0.3,0,0.5c0.3-0.1,0.5-0.4,0.4-1s-0.1-1.1-0.1-1.5
				c-0.1,0.3-0.2,0.3-0.4,0.2c-0.1-0.1-0.2-0.2-0.2-0.3s-0.1-0.2,0-0.3c0.1,0,0.2,0,0.2-0.1s-0.1,0-0.2,0L410,157.9L410,157.9
				L410,157.9z M410.3,158.9c0.3,0,0.5,0.1,0.5,0.2c0,0.2-0.1,0.4-0.2,0.6c-0.3,0-0.5-0.1-0.4-0.3
				C410.2,159.2,410.3,159.1,410.3,158.9L410.3,158.9z M410.9,157c0.3-0.5,0.6-0.9,0.8-1.4c0.2-0.4,0.5-1,0.8-1.6
				c-0.3-0.1-0.5-0.1-0.5,0.1c0,0.2,0,0.3,0,0.5c-0.2,0-0.3,0.1-0.3,0.2v0.2c-0.1-0.1-0.1-0.2-0.1-0.2s0-0.2,0.1-0.2
				c0.1-0.1,0.1-0.2,0-0.2c-0.2,0.2-0.4,0.5-0.5,0.7c-0.1,0.1-0.2,0.3-0.2,0.5c0,0.2,0,0.4,0,0.5c0-0.2,0.1-0.3,0.2-0.4
				c0.2-0.2,0.3-0.2,0.5,0c-0.2,0.1-0.3,0.2-0.4,0.3s-0.2,0.3-0.2,0.5C410.8,156.5,410.8,156.8,410.9,157L410.9,157L410.9,157z
				 M411.6,153.1c0.5,0.3,0.6,0.3,0.5,0.1s-0.1-0.3,0-0.3C411.9,153,411.7,153.1,411.6,153.1L411.6,153.1L411.6,153.1z M412.6,153.6
				c0-0.1,0-0.3,0.1-0.4c0.1-0.1,0.1-0.2,0.2-0.3c0.2-0.2,0.2-0.4,0-0.5c0,0.1-0.1,0.3-0.4,0.6c-0.1,0-0.1,0.1-0.1,0.1
				c0,0.1-0.1,0.1-0.1,0.2c0,0.1,0,0.1,0,0.2C412.4,153.6,412.5,153.6,412.6,153.6L412.6,153.6z M412.6,151.8c0.1,0,0.2,0,0.2-0.1
				c0.1-0.1,0.1-0.1,0.1-0.2c0-0.1,0.1-0.2,0.1-0.2s0.1-0.1,0.2-0.2c-0.2-0.2-0.3-0.2-0.4-0.1L412.6,151.8z M413.4,152.2
				c0.2-0.3,0.3-0.6,0.5-0.9c0.2-0.4,0.2-0.5,0-0.2c-0.1,0.1-0.3,0.1-0.4,0.2s-0.1,0.2-0.1,0.4C413.3,152,413.3,152.2,413.4,152.2
				L413.4,152.2L413.4,152.2z M413.6,149.6c0.1,0,0.3-0.1,0.4-0.4c0.1-0.2,0.1-0.3,0.1-0.5c-0.1,0.1-0.2,0.2-0.3,0.3
				C413.6,149.1,413.5,149.3,413.6,149.6L413.6,149.6L413.6,149.6z M414.7,146.6c0-0.1,0.1-0.2,0.3-0.3c0.2-0.1,0.1-0.2-0.2-0.3
				c0.1,0.1,0,0.3-0.2,0.4S414.5,146.6,414.7,146.6L414.7,146.6L414.7,146.6z M415.3,146.7c0-0.1,0.1-0.2,0.2-0.3s0.1-0.2-0.1-0.2
				c0,0.1-0.1,0.1-0.3,0.2S415,146.7,415.3,146.7L415.3,146.7L415.3,146.7z M416.2,145.6c0-0.2,0.1-0.3,0.1-0.4
				c0.1-0.2,0.1-0.3,0-0.3c0,0.1,0,0.2-0.1,0.2c0,0.1-0.1,0.1-0.2,0.2C415.9,145.5,416,145.6,416.2,145.6L416.2,145.6L416.2,145.6z
				 M416.7,143.8c-0.1,0.3-0.1,0.5,0,0.6c0.1,0,0.1,0,0.2,0s0.1-0.1,0.2-0.1c0.1-0.1,0.2-0.2,0.4-0.4c0.1-0.1,0-0.2-0.1-0.1H416.7
				L416.7,143.8z M424.3,146.3c-0.2,0.2-0.5,0.5-0.8,0.9s-0.9,1.2-1.8,2.4v0.9c-0.1,0-0.2,0-0.4,0c-0.1,0-0.2,0.1-0.3,0.2
				c-0.1,0.1-0.1,0.1-0.1,0.2c0,0.1,0,0.2,0,0.2c0,0.4-0.1,0.7-0.4,1c-0.1,0.1-0.2,0.2-0.2,0.4s-0.1,0.3-0.1,0.4
				c-0.2,0.3-0.4,0.6-0.6,0.8c-0.2,0.2-0.4,0.5-0.6,0.7c-0.1,0-0.1,0.1,0,0.4c0,0.2,0,0.4,0,0.5c-0.4,0.5-0.7,1-1,1.5
				c-0.2,0.3-0.3,0.7-0.5,1c0,0.2-0.1,0.4-0.1,0.6c0,0.2-0.1,0.4-0.2,0.5c-0.5,1.3-0.5,2.2,0,2.7c-0.1,0.1-0.2,0.2-0.2,0.4
				c0,0.1-0.1,0.3-0.2,0.4c0.3,0,0.6,0,0.9-0.1c0.2-0.1,0.5-0.1,0.7-0.2h0.8c0.1,0,0.2,0,0.4-0.1s0.2-0.1,0.3-0.2
				c0.3-0.3,0.7-0.7,1-1c0.3-0.4,0.7-0.7,1.1-0.9c-0.1,0.3-0.2,0.6-0.3,0.9c-0.1,0.2-0.2,0.4-0.5,0.6c0,0.1,0.2,0.1,0.6-0.2
				s0.8-0.6,1.1-0.8c0.3-0.3,0.7-0.6,1.1-0.9c0.3-0.2,0.6-0.5,0.8-0.8c0.7-0.7,1.3-1.5,1.9-2.3c0.6-0.9,1.2-1.6,1.8-2.4
				c-0.3-0.1-0.5-0.2-0.4-0.3c0.1-0.1,0.1-0.2,0.2-0.4l0.3-0.3c0.1-0.1,0-0.1-0.1-0.1c0-0.3,0.1-0.3,0.3-0.1s0.3,0.2,0.2,0.1
				c-0.2-0.2-0.3-0.4-0.3-0.6c0-0.2,0-0.5,0.1-0.7c0.1-0.3,0.2-0.5,0.2-0.8c0-0.3-0.1-0.6-0.2-0.8c0.3,0.1,0.4,0,0.2-0.2
				c-0.1-0.2-0.1-0.4,0-0.6c-0.2-0.3-0.3-0.6-0.4-0.8c-0.2-0.4-0.4-0.5-0.8-0.4c0-0.3,0-0.6-0.1-0.9c-0.1-0.3-0.3-0.5-0.5-0.8
				c-0.4-0.4-0.8-0.7-1.2-1L424.3,146.3L424.3,146.3z M420.2,162.4c0-0.2,0.1-0.3,0.3-0.2s0.4,0,0.4-0.3c-0.3-0.1-0.6,0-0.7,0.1
				C420.1,162.3,420.1,162.4,420.2,162.4L420.2,162.4L420.2,162.4z M423.8,158.1c0,0.4-0.3,0.9-0.6,1.1c-0.3,0.4-0.8,0.7-1.3,0.8
				c0.2-0.4,0.5-0.8,0.8-1.1C423,158.7,423.4,158.5,423.8,158.1L423.8,158.1z M423.4,138.2l0.1,0.1L423.4,138.2z M425.4,155.9
				c0.2,0.1,0.2,0.4-0.1,0.7s-0.5,0.5-0.6,0.4c0.3,0.2,0.3,0.3,0.1,0.3c-0.1,0-0.2,0-0.2,0c-0.1,0-0.1,0.1-0.2,0.2
				c0-0.4,0.1-0.7,0.4-0.9c0.2-0.2,0.4-0.4,0.6-0.6L425.4,155.9L425.4,155.9z M426.7,153.9c0.1,0,0.1,0.1,0.1,0.1
				c0,0.1,0.1,0.1,0.1,0.1c0,0.1,0,0.1,0,0.2c0,0.1,0,0.1-0.1,0.2l-0.2,0.4c-0.1,0-0.1,0-0.2-0.1c0,0-0.1-0.1-0.1-0.1
				c-0.1-0.1-0.2-0.1-0.4,0.2c-0.1,0,0-0.1,0.2-0.4C426.3,154.3,426.5,154.2,426.7,153.9L426.7,153.9L426.7,153.9z M428.2,149.6
				c0.1,0.3,0.2,0.6,0.3,1c-0.3,0-0.5,0.2-0.6,0.6s-0.1,0.8-0.2,1.1c-0.1-0.2-0.2-0.4-0.2-0.7c0-0.2,0.1-0.5,0.3-0.6
				c0.2-0.2,0.3-0.4,0.3-0.7C428.2,150.2,428.2,149.9,428.2,149.6L428.2,149.6L428.2,149.6z M428.9,152.6c0-0.4,0.2-0.7,0.4-1
				c0.1-0.1,0.1-0.1,0.1-0.2s0-0.2,0-0.3c0-0.1,0-0.2-0.1-0.3s-0.1-0.2-0.2-0.2c0,0.4-0.1,0.7-0.2,1.1
				C428.8,152.2,428.8,152.5,428.9,152.6L428.9,152.6L428.9,152.6z M445.5,131.6c0.1-0.1,0.2-0.1,0.4-0.1s0.3,0,0.4,0
				c0.4,0.1,0.5-0.1,0.5-0.4c-0.2,0.1-0.5,0.2-0.8,0.2C445.5,131.4,445.3,131.5,445.5,131.6L445.5,131.6z M446.2,156.5v0.9
				c0,0.4-0.1,0.5-0.4,0.5v-0.9C445.8,156.8,445.9,156.6,446.2,156.5L446.2,156.5z M447.3,131.1c0.4,0,0.9-0.1,1.3-0.1
				c0.5-0.1,0.7-0.2,0.5-0.3c-0.2,0.1-0.5,0.1-0.8,0.1c-0.2,0-0.4,0-0.6,0.1S447.4,131,447.3,131.1L447.3,131.1L447.3,131.1z
				 M447.8,154.5c-0.3,0-0.5-0.1-0.4-0.3c0.1-0.2,0.2-0.4,0.4-0.6V154.5z"/>
			<path d="M132.7,23.3c0.2,2.1,2.4,3.1,4.6,3.1s3.9-0.9,3.9-2.5c0-1.3-0.9-1.9-3.1-2.3l-3.6-0.6c-3.4-0.6-5.9-2.2-5.9-5.8
				c0-3.9,3.5-6.5,8.3-6.5c5.3,0,8.3,2.3,8.7,6.3h-4.7c-0.2-1.6-1.8-2.6-4-2.6s-3.6,1-3.6,2.4s1,1.9,3.1,2.3l4,0.7
				c3.6,0.6,5.6,2.6,5.6,5.9c0,3.9-3.7,6.5-8.6,6.5c-5.3,0-9.1-2.2-9.5-6.7L132.7,23.3z"/>
			<path d="M160.5,30c-5.9,0-10.3-4-10.3-10.6s4.4-10.7,10.2-10.7c6.4,0,9.4,4.9,9.4,10.3v1.6h-14.6c0.3,3.6,2.2,5.7,5.3,5.7
				c1,0.1,2-0.2,2.8-0.7c0.8-0.6,1.4-1.4,1.7-2.3h4.7C168.8,27.5,165.1,30,160.5,30L160.5,30z M155.3,17.2h9.6
				c0-2.5-1.4-4.8-4.5-4.8C157.7,12.5,155.9,14.1,155.3,17.2z"/>
			<path d="M180.5,12.6c0.6-1.2,1.4-2.3,2.6-3c1.1-0.7,2.5-1,3.8-1c4.7,0,7.5,2.9,7.5,7.8v13.1h-5.1V17.7c0-3.2-1.4-4.9-4.1-4.9
				s-4.6,1.6-4.6,5.7v11.1h-5.1V9.1h5.1C180.5,9.1,180.5,12.6,180.5,12.6z"/>
			<path d="M215.2,26.3c-0.6,1.2-1.6,2.1-2.7,2.8c-1.2,0.7-2.5,1-3.8,0.9c-5.3,0-9-4.3-9-10.7s3.6-10.7,9-10.7c1.3,0,2.6,0.3,3.8,1
				c1.1,0.7,2.1,1.7,2.7,2.8V0h5.1v29.5h-5.1L215.2,26.3L215.2,26.3z M215.2,19c0-4-1.9-6.5-5.1-6.5s-5.2,2.7-5.2,6.9
				s1.9,6.9,5.2,6.9s5.1-2.6,5.1-6.5C215.2,19.7,215.2,19,215.2,19z"/>
			<path d="M249.5,26.3c-1,2.3-3.5,3.6-6.8,3.6c-4,0-6.9-2.2-6.9-5.9c0-4.1,3.2-5.8,7.3-6.2l6.1-0.7v-1c0-2.5-1.5-3.7-3.9-3.7
				s-3.6,1.2-3.8,3.1h-4.9c0.4-4.4,3.9-6.9,8.9-6.9c5.5,0,8.7,2.6,8.7,7.9v7.9c0,1.7,0.1,3.4,0.4,5.1h-4.9
				C249.6,28.4,249.5,27.4,249.5,26.3L249.5,26.3z M249.3,21.6v-1.2l-4.5,0.5c-2.2,0.3-3.8,0.8-3.8,2.9c0,1.6,1.1,2.6,3.2,2.6
				C246.8,26.4,249.3,24.8,249.3,21.6z"/>
			<path d="M274.5,23.3c0.2,2.1,2.4,3.1,4.6,3.1s3.9-0.9,3.9-2.5c0-1.3-0.9-1.9-3.1-2.3l-3.6-0.6c-3.4-0.6-5.9-2.2-5.9-5.8
				c0-3.9,3.5-6.5,8.3-6.5c5.3,0,8.3,2.3,8.7,6.3h-4.7c-0.2-1.6-1.8-2.6-4-2.6s-3.6,1-3.6,2.4s1,1.9,3.1,2.3l4,0.7
				c3.6,0.6,5.6,2.6,5.6,5.9c0,3.9-3.7,6.5-8.6,6.5c-5.3,0-9.1-2.2-9.5-6.7L274.5,23.3L274.5,23.3z"/>
			<path d="M317.8,8.7c4.7,0,7.2,2.9,7.2,7.8v13.1h-5.2v-12c0-3.2-1.2-4.9-3.7-4.9s-4.4,1.7-4.4,5.7v11.1h-5.1v-12
				c0-3.2-1.2-4.9-3.7-4.9s-4.4,1.7-4.4,5.7v11.1h-5.1V9.1h5v3.4c0.5-1.2,1.4-2.2,2.5-2.9c1.1-0.7,2.4-1,3.7-1c3.4,0,5.3,1.6,6.3,4
				c0.7-1.2,1.7-2.3,2.9-3C315,9,316.4,8.6,317.8,8.7L317.8,8.7z"/>
			<path d="M343.9,26.3c-1,2.3-3.5,3.6-6.8,3.6c-4,0-6.9-2.2-6.9-5.9c0-4.1,3.2-5.8,7.3-6.2l6.1-0.7v-1c0-2.5-1.5-3.7-3.9-3.7
				s-3.6,1.2-3.8,3.1h-4.9c0.4-4.4,3.9-6.9,8.9-6.9c5.5,0,8.7,2.6,8.7,7.9v7.9c0,1.7,0.1,3.4,0.4,5.1h-4.9
				C344,28.4,343.9,27.4,343.9,26.3z M343.7,21.6v-1.2l-4.5,0.5c-2.2,0.3-3.8,0.8-3.8,2.9c0,1.6,1.1,2.6,3.2,2.6
				C341.2,26.4,343.7,24.8,343.7,21.6L343.7,21.6z"/>
			<path d="M355.3,29.5V0h5.1v29.5H355.3z"/>
			<path d="M367.1,29.5V0h5.1v29.5H367.1z"/>
		</g>
	</g>
</g>
<g id="Layer_2">
	<rect x="101" class="st1" width="290" height="48"/>
</g>
</svg>
