<svg xmlns="http://www.w3.org/2000/svg" xmlns:xlink="http://www.w3.org/1999/xlink" viewBox="0 0 625.81 123.78"><defs><style>.cls-1{fill:#263c84;}.cls-2{fill:#263a7c;}.cls-3{fill:#54c3f0;}.cls-4{fill-rule:evenodd;fill:url(#radial-gradient);}.cls-5{fill:none;}.cls-6{fill:url(#radial-gradient-2);}.cls-7{fill:url(#radial-gradient-3);}.cls-8{fill:url(#radial-gradient-4);}.cls-9{fill:url(#radial-gradient-5);}.cls-10{fill:url(#radial-gradient-6);}</style><radialGradient id="radial-gradient" cx="40.78" cy="71.91" r="53.92" gradientUnits="userSpaceOnUse"><stop offset="0" stop-color="#2d7cbe"/><stop offset="0.05" stop-color="#1a84c7"/><stop offset="0.26" stop-color="#1a81c4"/><stop offset="0.43" stop-color="#1b78b9"/><stop offset="0.6" stop-color="#1c6aa8"/><stop offset="0.75" stop-color="#1d558f"/><stop offset="0.9" stop-color="#1f3a6f"/><stop offset="0.98" stop-color="#202b5d"/></radialGradient><radialGradient id="radial-gradient-2" cx="51.07" cy="62.54" r="47.29" gradientTransform="translate(0 -0.61)" gradientUnits="userSpaceOnUse"><stop offset="0" stop-color="#00aae5"/><stop offset="0.05" stop-color="#1784c7"/><stop offset="0.28" stop-color="#1881c4"/><stop offset="0.48" stop-color="#1a76ba"/><stop offset="0.67" stop-color="#1d65a9"/><stop offset="0.85" stop-color="#224c91"/><stop offset="0.98" stop-color="#26357b"/></radialGradient><radialGradient id="radial-gradient-3" cx="51.07" cy="60.56" r="48.44" gradientTransform="translate(0 -0.61)" gradientUnits="userSpaceOnUse"><stop offset="0" stop-color="#2a7cc0"/><stop offset="0.05" stop-color="#1784c7"/><stop offset="0.26" stop-color="#1781c4"/><stop offset="0.43" stop-color="#1677b9"/><stop offset="0.6" stop-color="#1568a8"/><stop offset="0.76" stop-color="#14518f"/><stop offset="0.91" stop-color="#12356f"/><stop offset="0.98" stop-color="#11265f"/></radialGradient><radialGradient id="radial-gradient-4" cx="66.77" cy="52.5" r="36.05" xlink:href="#radial-gradient-3"/><radialGradient id="radial-gradient-5" cx="51.07" cy="60.54" r="48.47" xlink:href="#radial-gradient-3"/><radialGradient id="radial-gradient-6" cx="66.77" cy="52.47" r="36.08" xlink:href="#radial-gradient-3"/></defs><g id="Layer_2" data-name="Layer 2"><g id="Layer_1-2" data-name="Layer 1"><path class="cls-1" d="M168.36,61.54a24.78,24.78,0,0,1-8.44,3.19q6.68,1.13,9.47,4c1.85,1.91,2.78,4.75,2.78,8.5v4.41c0,2.57.73,3.85,2.21,3.85a10.13,10.13,0,0,0,1.7-.23,9.18,9.18,0,0,1,1.7-.24A3.84,3.84,0,0,1,181,86.74a7.63,7.63,0,0,1,1.24,4.55,6.68,6.68,0,0,1-1.81,4.92A6.41,6.41,0,0,1,175.69,98a31.2,31.2,0,0,1-3.15-.24,30.49,30.49,0,0,0-3.15-.23,32,32,0,0,0-3.3.23,32.73,32.73,0,0,1-3.29.24,6.53,6.53,0,0,1-5.52-2.86,12.52,12.52,0,0,1-2.09-7.54.72.72,0,0,1,.28-.66V80.89q0-4.87-2.46-6.75t-8.86-1.87c-1.73,0-2.82.46-3.25,1.4a8.81,8.81,0,0,0-.46,3.47V79.3q0,6.38,2.32,6.37a9.37,9.37,0,0,0,2-.33,9.44,9.44,0,0,1,2.09-.33,4,4,0,0,1,3.29,1.78,7.1,7.1,0,0,1,1.35,4.41q0,6.84-6.5,6.84a52.87,52.87,0,0,1-6-.47,53.31,53.31,0,0,0-6.59-.47,56.7,56.7,0,0,0-6.86.47,57.37,57.37,0,0,1-6.59.47q-6.78,0-6.77-6.84a6.8,6.8,0,0,1,1.44-4.41A4.41,4.41,0,0,1,117.15,85a11.51,11.51,0,0,1,2.32.33,11.3,11.3,0,0,0,2.13.33q2.5,0,2.51-6.37v-26a23.82,23.82,0,0,0-.19-3.84c-.31-1.62-1.08-2.44-2.32-2.44a10.72,10.72,0,0,0-2.18.33,10.85,10.85,0,0,1-2.27.33,4.39,4.39,0,0,1-3.57-1.78,6.8,6.8,0,0,1-1.44-4.41,7,7,0,0,1,1.81-5,6.06,6.06,0,0,1,4.68-2,3,3,0,0,1,.84.09l6.58.66a58.61,58.61,0,0,0,5.94.28q5.47,0,13.83-.66c3.71-.24,6.46-.37,8.26-.37q8.8,0,14,4.46t5.15,12.16Q173.19,58.26,168.36,61.54ZM147.3,47.06a15.39,15.39,0,0,0-4.82.47c-1.36.63-2,2-2,4.06v5.66c0,1.45.23,2.39.69,2.83a3.94,3.94,0,0,0,2.65.66q12.06,0,12.06-7.26Q155.84,47.06,147.3,47.06Z"/><path class="cls-1" d="M203.81,50.44c1.73,0,2.6,1.21,2.6,3.65v28.2c0,3.19.58,4.78,1.76,4.78a4.75,4.75,0,0,0,1.35-.33,5.52,5.52,0,0,1,1.62-.32q3.9,0,3.9,5,0,6.57-5.48,6.57c-.62,0-2.35-.15-5.19-.47a58.07,58.07,0,0,0-5.94-.28,46.78,46.78,0,0,0-4.92.38,46.18,46.18,0,0,1-4.82.37,5.25,5.25,0,0,1-4.09-1.73A6.37,6.37,0,0,1,183,91.76q0-5.34,4.46-5.34l2.41.56a2.8,2.8,0,0,0,.65.09q1.67,0,1.67-5.24V66.64c0-3.56-.53-5.33-1.58-5.33a8.84,8.84,0,0,0-1.67.46,7.53,7.53,0,0,1-1.48.19Q183,62,183,56.71a6.5,6.5,0,0,1,1.58-4.54,5.37,5.37,0,0,1,4.18-1.73,22.1,22.1,0,0,1,3,.28,38.57,38.57,0,0,0,5.19.47,29,29,0,0,0,4.09-.38C202.7,50.56,203.62,50.44,203.81,50.44Zm-5.29-3.56a8.1,8.1,0,0,1-5.94-2.53,8.55,8.55,0,0,1,0-12,8.43,8.43,0,0,1,12,0,8.64,8.64,0,0,1,0,12.08A8.07,8.07,0,0,1,198.52,46.88Z"/><path class="cls-1" d="M242,49.12h3.52a9.38,9.38,0,0,1,3.16-7.31c2-1.74,4.85-2.62,8.44-2.62a11.55,11.55,0,0,1,7.28,2.25,6.93,6.93,0,0,1,2.93,5.72,5.45,5.45,0,0,1-1.53,3.93A5.15,5.15,0,0,1,262,52.68a4.12,4.12,0,0,1-3.8-2l-.93-1.5a1.28,1.28,0,0,0-1.2-.66c-1.3,0-2,.91-2,2.72a3.44,3.44,0,0,0,.09.94Q263.1,55.4,263.1,65a14.13,14.13,0,0,1-5.54,11.62Q252,81,243,81a25.67,25.67,0,0,1-10-2.15l-.46-.19a3.12,3.12,0,0,0-1.4,2.4q0,3.15,4.47,3.88a48.16,48.16,0,0,0,6.79.28h7c6-.06,10.54,1.09,13.77,3.47A11.82,11.82,0,0,1,268,98.79q0,8.33-7.24,13.16t-19.67,4.82q-11.13,0-17.86-4.17t-6.73-11.1q0-7.48,9.37-10.4-7.51-1.5-7.51-8.53A9.13,9.13,0,0,1,220,76.81a15.29,15.29,0,0,1,5.87-4,12.12,12.12,0,0,1-3.34-8.25,13.56,13.56,0,0,1,5.61-11A21.7,21.7,0,0,1,242,49.12Zm-1.12,47c-1.48,0-3.34-.09-5.56-.28q-4.19,1.68-4.18,4.31,0,5,10.95,5t11-5c0-2.68-2.41-4-7.24-4h-5Zm1.86-37.38a5.77,5.77,0,0,0-4.32,1.76A6.07,6.07,0,0,0,236.75,65a6.27,6.27,0,0,0,1.71,4.47,6,6,0,0,0,8.63,0,6.11,6.11,0,0,0,1.72-4.38,6.24,6.24,0,0,0-1.72-4.47A5.7,5.7,0,0,0,242.78,58.78Z"/><path class="cls-1" d="M291.58,37.79V54.93a28.43,28.43,0,0,1,6.68-4.63,16.78,16.78,0,0,1,6.68-1.18q8.64,0,12.25,5.45,2.42,3.66,2.41,11.65V82.38q0,4.7,1.86,4.69a2.42,2.42,0,0,0,1.3-.33,3,3,0,0,1,1.48-.32c2.72,0,4.09,1.62,4.09,4.85q0,6.67-5.48,6.67a41.27,41.27,0,0,1-4.64-.37,41.82,41.82,0,0,0-4.64-.38,37.84,37.84,0,0,0-4.4.38,37.63,37.63,0,0,1-4.41.37A4.83,4.83,0,0,1,301,96.35a6.05,6.05,0,0,1-1.44-4.22q0-4.77,3.53-5.06,1.57-.09,2-.84a6.3,6.3,0,0,0,.37-2.53V69.36q0-7.77-5.85-7.77-8,0-8,11.14V83.79a4.6,4.6,0,0,0,.42,2.49,4,4,0,0,0,2.27.79q2.88.48,2.88,4.69,0,6.18-5.1,6.18a35.93,35.93,0,0,1-4-.37,41.23,41.23,0,0,0-5.29-.38,35,35,0,0,0-4.18.28c-2.47.32-4,.47-4.73.47a5.24,5.24,0,0,1-4.08-1.73,6.37,6.37,0,0,1-1.58-4.45q0-5.34,4.55-5.34a5.4,5.4,0,0,1,1.53.32,4.84,4.84,0,0,0,1.53.33q1.57,0,1.58-5.24V50.62q0-5.23-1.58-5.24a5.92,5.92,0,0,0-1.67.31,5.94,5.94,0,0,1-1.49.15c-3,0-4.45-1.7-4.45-5.11a6.4,6.4,0,0,1,1.58-4.5,5.27,5.27,0,0,1,4.08-1.72,31.31,31.31,0,0,1,3.53.28,33.56,33.56,0,0,0,3.52.28,39.33,39.33,0,0,0,5-.28,25.34,25.34,0,0,1,3.2-.28C290.75,34.51,291.58,35.6,291.58,37.79Z"/><path class="cls-1" d="M350.69,63.27v9.65l-.19,6.28a19.22,19.22,0,0,1-.18,2.53q0,5.53,3.43,5.53c2.16,0,3.25-1.65,3.25-5V79Q357,74,362,74q5.83,0,5.84,9.47,0,7.39-4.36,11.57t-12.15,4.17Q336,99.16,336,82.86c0-1.75.07-4.38.23-7.88s.23-6.12.23-7.87v-3a6.37,6.37,0,0,0-.42-3c-.27-.4-.94-.6-2-.6h-1.49a3.56,3.56,0,0,1-2.87-1.36,5.4,5.4,0,0,1-1.12-3.52,6,6,0,0,1,1.16-3.7,3.38,3.38,0,0,1,2.74-1.54h1.76c1.49,0,2.35-.44,2.6-1.32a7.86,7.86,0,0,0,.28-2.53V42q0-3.27,1.72-4.49c1.14-.82,3.23-1.22,6.26-1.22q3.24,0,4.41.93c.77.63,1.16,2,1.16,4.13v5.06c0,1.81.17,2.93.51,3.37s1.22.66,2.64.66h6.68c3.65,0,5.48,1.71,5.48,5.15s-1.67,5-5,5h-7.61c-1.3,0-2.07.21-2.32.65A4.35,4.35,0,0,0,350.69,63.27Z"/><path class="cls-1" d="M389.94,49.12a18.45,18.45,0,0,1,12.06,4c.24-2.68,1.91-4,5-4s4.73,1.13,4.73,3.38a9.91,9.91,0,0,1-.37,2.53,19.11,19.11,0,0,0-.28,3.18q0,.28.09,1.5v2.53q0,5-4.91,5-3.54,0-6.13-3.52-3.15-4.26-7.7-4.26-5.38,0-5.38,3.75a2.8,2.8,0,0,0,1.76,2.76c1.18.53,4.27,1.24,9.28,2.11a38.07,38.07,0,0,1,9,2.53,12.3,12.3,0,0,1,4.78,4,13.59,13.59,0,0,1,2.32,7.87,15.2,15.2,0,0,1-5.43,11.9,19.81,19.81,0,0,1-13.6,4.78,23.43,23.43,0,0,1-14.84-5.25q0,4.5-4.64,4.5-5,0-5-4.12,0-.95.18-2.91c.13-1.31.19-2.28.19-2.9s-.05-1.41-.14-2.53-.14-2-.14-2.53q0-4.22,5.2-4.22a7.72,7.72,0,0,1,3.8.76,9.52,9.52,0,0,1,2.79,2.93,13.93,13.93,0,0,0,4.26,4.59,12,12,0,0,0,5.76,1.09q6.67,0,6.68-4.21c0-1.94-1.8-3.28-5.38-4l-5.39-1.13a40.68,40.68,0,0,1-9.32-2.81,10,10,0,0,1-4.32-4.45,15,15,0,0,1-1.57-7,15.13,15.13,0,0,1,4.59-11.43Q382.51,49.12,389.94,49.12Z"/><path class="cls-1" d="M549.32,23.74h0c-2.27-.54-4.56-1.07-6.85-1.58C473.68,6.83,402.66,1.89,331,.33A1423,1423,0,0,0,180.36,5.1c-9.34.79-18.64,1.78-27.93,2.78s-43.64,5.31-52.87,6.4c1.78.67,28.55-2.56,30.17-2.65l1.43-.08c3.15-.26,85.57-7.09,130.91-6.29a1241.4,1241.4,0,0,1,146.15,6.63c41,4.18,81.51,10,120.17,20.9,18.41,5.2,36.17,11.3,50.16,21.68,14.54,10.8,15.53,22.9,1,33.72a122.37,122.37,0,0,1-24.49,14.59c-25.47,11.4-57.61,16-87.57,21,3.7-.6,36-4.81,42.58-6,29.95-5.3,59.59-11.39,85.75-23.39A95.48,95.48,0,0,0,619.41,79c4-3.56,6-7.38,6.2-11.25l0,0S632.91,42.53,549.32,23.74Z"/><path class="cls-2" d="M456.23,65.9l6.57,19.67,7-19.67c.19-.48.44-1.13.76-2a5.87,5.87,0,0,0,.29-1.43c0-.83-.83-1.4-2.48-1.7q-3.62-.7-3.61-5,0-5.1,5.13-5.1c1.15,0,2.84.12,5.09.36s4,.36,5.09.36a37.8,37.8,0,0,0,5.24-.36,30.14,30.14,0,0,1,3.71-.36q5.61,0,5.61,5.63,0,5.37-4.85,5.37h-.95a3.35,3.35,0,0,0-1.24-.27c-1.08,0-2,.92-2.66,2.77-.26.66-.89,2.2-1.91,4.65l-8.18,20q-3,7.32-8.47,7l-4.47-.27-4.47.27h-.38q-4.47,0-6.56-5.34l-9.9-25A18.08,18.08,0,0,0,439,62.28a1.74,1.74,0,0,0-1.43-.58H435a4,4,0,0,1-3.14-1.42,5.37,5.37,0,0,1-1.24-3.64q0-5.94,5.81-5.94a38.87,38.87,0,0,1,4.33.36,38.55,38.55,0,0,0,4.32.36q2,0,6.85-.45,3-.27,4.38-.27,5.15,0,5.14,5.1,0,4.65-3.81,5c-1.58.18-2.38.78-2.38,1.79A21.09,21.09,0,0,0,456.23,65.9Z"/><path class="cls-2" d="M516.17,53.2v4.3q7.32-8.05,16.55-8,9.9,0,14,7,2.19,3.59,2.19,11.27V81.1q0,4.56,1.91,4.56a4.4,4.4,0,0,0,1.42-.38,3.13,3.13,0,0,1,1.43-.25q4.19,0,4.19,4.73c0,4.18-1.91,6.27-5.71,6.27a42.59,42.59,0,0,1-4.57-.36,42.59,42.59,0,0,0-4.57-.36,37.8,37.8,0,0,0-5,.36,33.8,33.8,0,0,1-4.37.36Q528,96,528,90.57q0-4.74,3.9-5c1.72-.12,2.57-.86,2.57-2.23V70.87q0-5.16-1.42-7.26t-4.86-2.09a8.72,8.72,0,0,0-6.42,2.5,8.52,8.52,0,0,0-2.52,6.33v9.27a17.27,17.27,0,0,0,.38,4.86c.26.57,1,.93,2.19,1.11,2.28.3,3.43,1.91,3.43,4.82,0,3.74-1.69,5.62-5.05,5.62a28.39,28.39,0,0,1-3.52-.27,45.47,45.47,0,0,0-5.23-.45c-1.14,0-2.84.12-5.09.36s-3.95.36-5.09.36q-6,0-6-6,0-5,4.57-5a5.86,5.86,0,0,1,1.71.31,5.1,5.1,0,0,0,1.42.32q1.62,0,1.62-5V66.17q0-5.1-1.62-5.1a7.3,7.3,0,0,0-1.47.31,6.64,6.64,0,0,1-1.66.32q-4.57,0-4.57-4.92a6.18,6.18,0,0,1,1.57-4.38A5.36,5.36,0,0,1,501,50.7a23.75,23.75,0,0,1,3.23.45,13.59,13.59,0,0,0,2.47.27,34.61,34.61,0,0,0,3.9-.36c1.84-.24,2.86-.36,3.05-.36A2.25,2.25,0,0,1,516.17,53.2Z"/><path class="cls-3" d="M89.67,96.56S58,61.37,39.62,87.21c0,0-12.66,28.66-37.41,21.08,0,0-1.61-.49-2.09.5C-.49,110,1.36,111,1.41,111.06c.87.63,22.44,15.64,41-8.44,0,0,3.92-32.08,38.42-9.66L87.29,98a12.13,12.13,0,0,0,1.13.88A1.34,1.34,0,0,0,90,98.83C90.84,97.92,89.72,96.64,89.67,96.56Z"/><path class="cls-3" d="M56.71,74.29S41.18,65.79,33.54,76c0,0-7.83,20.25-25.42,16.58H8a1.87,1.87,0,0,0-.66-.06,1.25,1.25,0,0,0-1.22.81h0C6,94.39,7.51,94.9,7.55,94.91c3.1,1.43,22.94,9.58,31.07-12.2,0,0,2.67-9.16,16.92-5.92C55.54,76.79,58.21,76.21,56.71,74.29Z"/><polygon class="cls-4" points="75.78 11.51 44.18 98.02 74.03 74.51 75.78 11.51"/><path class="cls-5" d="M46.7,85.36,52.41,67l2.33-8.66s2.52-8.17,2.43-8.58,3.15-5.59,3.15-5.59l4-6.08,2.08-1,.26-.73c-4.95,1.82-25,11-25.19,39.72a33.25,33.25,0,0,0,.9,4,35,35,0,0,0,3.43,8C45.28,87.07,46.7,85.36,46.7,85.36Z"/><path class="cls-5" d="M49.21,93c.23.27.48.52.72.79l-.65-.85Z"/><path class="cls-5" d="M47,90.13l0-.12c-.33-.46-.64-.88-.87-1.23C46.48,89.23,46.75,89.69,47,90.13Z"/><path class="cls-6" d="M54.12,96.71c-.44,0-.87,0-1.31,0A32.39,32.39,0,0,1,50.12,94h0l-.17-.22c-.24-.27-.49-.52-.72-.79l.07-.06c-.62-.81-1.48-1.94-2.2-2.93l0,.12c-.29-.44-.56-.9-.83-1.35-.18-.25-.32-.47-.4-.61a.06.06,0,0,0,0,0,35,35,0,0,1-3.43-8,33.25,33.25,0,0,1-.9-4c.23-28.73,20.24-37.9,25.19-39.72l.34-.93A33,33,0,0,0,35.61,92.53a41.53,41.53,0,0,1-23.82-37.4A40.84,40.84,0,0,1,13,45.3,43.7,43.7,0,0,0,8.12,65.41c0,23.68,18.65,42.88,41.65,42.88,18.85,0,34.77-12.9,39.9-30.59A42.47,42.47,0,0,1,54.12,96.71Z"/><path class="cls-7" d="M50.1,94h0l-.19-.21Z"/><path class="cls-8" d="M50.1,94h0l-.19-.21Z"/><path class="cls-9" d="M45.81,88.17c.08.14.22.36.4.61-.14-.22-.28-.43-.41-.65A.06.06,0,0,1,45.81,88.17Z"/><path class="cls-10" d="M45.81,88.17c.08.14.22.36.4.61-.14-.22-.28-.43-.41-.65A.06.06,0,0,1,45.81,88.17Z"/></g></g></svg>